<svg version="1.2" xmlns="http://www.w3.org/2000/svg" viewBox="0 0 3636 3580" width="3636" height="3580">
	<style>
		.s0 { fill: #3e98fe } 
		.s1 { fill: #5bc84c } 
		.s2 { fill: #db1024 } 
		.s3 { fill: #d60d24 } 
		.s4 { fill: #d70d24 } 
		.s5 { fill: #262626 } 
		.s6 { fill: #d70e24 } 
		.s7 { fill: #d50c24 } 
		.s8 { fill: #4393fa } 
		.s9 { fill: #498af0 } 
	</style>
	<path class="s0" d="m34 657c4.68 4.3 8.11 9.21 11.69 14.44q1.88 2.71 3.76 5.42 0.9 1.32 1.84 2.67c3.41 4.93 6.91 9.79 10.41 14.66q2.12 2.96 4.24 5.93c6.52 9.12 13.22 18.08 20.04 26.98q6.74 8.81 13.27 17.77c5.15 7.04 10.48 13.89 15.96 20.66 2.62 3.24 5.15 6.53 7.67 9.85 5.12 6.7 10.49 13.18 15.87 19.68q3.77 4.55 7.44 9.19c3.47 4.37 7.06 8.62 10.68 12.87q4.34 5.11 8.57 10.32c4.89 6.01 9.94 11.88 15 17.75q2.33 2.71 4.64 5.43c5.46 6.41 10.99 12.72 16.69 18.93 2.53 2.77 5 5.6 7.46 8.43 2.79 3.19 5.63 6.33 8.47 9.47q2.2 2.44 4.38 4.88c5.11 5.71 10.31 11.33 15.55 16.92q5.09 5.44 10.12 10.93c4.81 5.24 9.7 10.35 14.8 15.31 1.89 1.94 3.63 3.88 5.38 5.94 4.95 5.67 10.3 10.95 15.63 16.26q1.67 1.67 3.34 3.35 3.49 3.49 6.98 6.97 4.44 4.44 8.88 8.88 3.44 3.45 6.89 6.9 1.64 1.63 3.27 3.27c5.32 5.33 10.64 10.6 16.39 15.47 3.67 3.19 7 6.75 10.4 10.22 3.61 3.66 7.34 7.09 11.23 10.45 3.57 3.12 6.99 6.41 10.43 9.67q12.06 11.41 24.58 22.33c4.92 4.32 9.76 8.74 14.63 13.13 8.77 7.9 17.68 15.61 26.71 23.22q2.53 2.14 5.05 4.29c4.98 4.22 9.96 8.42 15.03 12.54 4.4 3.57 8.68 7.26 12.94 11 5.33 4.65 10.76 9.12 16.35 13.46 4.5 3.49 8.93 7.06 13.34 10.66q10.07 8.2 20.31 16.18 2.47 1.94 4.94 3.89c15.01 11.87 30.3 23.38 45.63 34.84q3.54 2.65 7.06 5.31c9 6.78 18.04 13.47 27.23 19.98q5.31 3.79 10.58 7.61 1.14 0.82 2.31 1.67 5.67 4.09 11.31 8.21c8.95 6.52 17.99 12.84 27.15 19.04 4.51 3.06 9 6.12 13.44 9.26 17.87 12.6 36.18 24.53 54.46 36.52q7.9 5.19 15.76 10.45 8.62 5.76 17.38 11.29 2.85 1.8 5.69 3.61 1.42 0.89 2.88 1.82 4.22 2.68 8.43 5.37c17.16 10.96 34.46 21.67 51.87 32.23q8.12 4.93 16.18 9.96c12.38 7.73 24.96 15.08 37.56 22.43q6.35 3.71 12.64 7.52c18.89 11.39 38.07 22.32 57.19 33.31 1.7 0.98 1.7 0.98 3.44 1.98q20.78 11.96 41.76 23.58 10.78 5.97 21.49 12.06c8.83 5.02 17.74 9.9 26.68 14.72q8.85 4.76 17.63 9.66c16.32 9.11 32.82 17.91 49.29 26.77q12.34 6.65 24.67 13.33 12.73 6.9 25.49 13.75 8.75 4.71 17.47 9.48c11.65 6.39 23.39 12.62 35.14 18.82q15.25 8.06 30.45 16.23 12.38 6.64 24.79 13.21c10.6 5.62 21.17 11.27 31.69 17.03q10.36 5.67 20.76 11.25 1.62 0.88 3.29 1.78 3.32 1.78 6.64 3.56 14.66 7.89 29.32 15.79 1.48 0.8 3.01 1.62c14.85 8.01 29.64 16.13 44.4 24.29q6.51 3.6 13.04 7.17c12.41 6.81 24.74 13.72 36.95 20.91q9.7 5.69 19.6 11.01c9.73 5.25 19.28 10.77 28.81 16.37q7.83 4.59 15.71 9.09c12.76 7.31 25.36 14.87 37.91 22.53q8.54 5.21 17.13 10.32c7.88 4.71 15.66 9.58 23.41 14.5q6.85 4.34 13.73 8.61c19.67 12.23 38.96 25 58.24 37.83q1.23 0.82 2.5 1.67 16.38 10.89 32.56 22.08 1.39 0.97 2.83 1.96 17.73 12.32 35.17 25.04 1.15 0.84 2.34 1.7c9.48 6.91 18.86 13.94 28.09 21.18q7.37 5.76 14.88 11.31c6.12 4.54 11.96 9.32 17.74 14.29 3.42 2.93 6.93 5.74 10.47 8.53q2.72 2.18 5.37 4.45 1.44 1.22 2.92 2.48 1.3 1.12 2.65 2.27c2.7 1.9 4.24 2.75 7.54 2.79 2.22-1.34 2.22-1.34 4.19-3.44 3.04-2.89 6.08-5.65 9.37-8.25q5.63-4.45 11.19-9c7.07-5.78 14.22-11.44 21.5-16.98q2.89-2.2 5.77-4.42c14.76-11.31 29.63-22.44 44.73-33.29q3.26-2.35 6.51-4.73c39.29-28.71 80.46-55.43 121.81-81.06q4.33-2.7 8.64-5.43c14.7-9.28 29.61-18.19 44.58-27.02q6.75-3.99 13.47-8.04 9.24-5.55 18.55-10.97 1.51-0.87 3.07-1.78 4.81-2.8 9.62-5.59 1.59-0.92 3.22-1.87 20.75-12.05 41.71-23.74 8.74-4.88 17.45-9.83c11.66-6.6 23.37-13.12 35.1-19.61q3.53-1.96 7.06-3.92 22.25-12.36 44.72-24.31 12.28-6.53 24.48-13.21c8-4.38 16.03-8.68 24.08-12.98q11.5-6.14 22.93-12.41c10.29-5.63 20.65-11.13 31.02-16.63q13.13-6.96 26.23-13.99 14.13-7.58 28.3-15.09c10.55-5.59 21.08-11.22 31.55-16.96q10.92-5.97 21.9-11.83 1.79-0.95 3.57-1.91 0.88-0.47 1.79-0.95c0.89-0.48 0.89-0.48 1.79-0.96q0.88-0.47 1.79-0.96 22.54-12.04 44.97-24.3 10.78-5.87 21.59-11.67 14.18-7.61 28.23-15.47 6.06-3.37 12.12-6.73 18.13-10.06 36.22-20.21 6.22-3.49 12.46-6.96c11.23-6.26 22.41-12.61 33.5-19.12q10.54-6.16 21.15-12.19c19.47-11.08 38.82-22.36 58-33.94q3.8-2.29 7.61-4.56 18-10.75 35.85-21.77 9.35-5.77 18.75-11.46c8.93-5.41 17.77-10.92 26.51-16.63 4.99-3.25 10.01-6.45 15.04-9.64q1.4-0.9 2.85-1.82 6.62-4.22 13.28-8.39c13-8.17 25.78-16.65 38.56-25.17q1.34-0.89 2.72-1.81c10.76-7.18 21.48-14.42 32.12-21.77q3.83-2.64 7.66-5.27c16.45-11.27 32.82-22.65 48.95-34.38q4.45-3.23 8.91-6.45 2.26-1.63 4.52-3.26 5.56-4.02 11.13-8.01c9.9-7.09 19.62-14.39 29.29-21.8q7.88-6.01 15.82-11.93c10.99-8.23 21.86-16.56 32.49-25.24q6.45-5.27 13.01-10.39c5.83-4.55 11.58-9.2 17.32-13.87q5.37-4.39 10.81-8.69c4.64-3.7 9.13-7.57 13.63-11.45q5.3-4.57 10.74-8.99c4.85-3.93 9.58-7.98 14.31-12.06q5.27-4.53 10.69-8.88c5.67-4.59 10.96-9.56 16.28-14.55q4.56-4.27 9.3-8.34 3.49-3.05 6.92-6.17 4.4-3.98 8.87-7.87c3.92-3.42 7.75-6.93 11.58-10.45q4.62-4.25 9.3-8.43c9.86-8.86 19.6-17.89 28.84-27.41 1.89-1.83 3.79-3.52 5.79-5.22 5.92-5.17 11.42-10.77 16.97-16.33q1.77-1.78 3.55-3.55 3.7-3.7 7.39-7.4 4.71-4.72 9.43-9.42 3.66-3.66 7.31-7.32 1.74-1.73 3.47-3.47c5.54-5.52 11.04-11.04 16.1-17.01 2.76-3.2 5.83-6.1 8.86-9.04 3.41-3.36 6.57-6.87 9.7-10.49 3.14-3.57 6.44-7.01 9.71-10.46 5.8-6.14 11.52-12.32 17.13-18.63q2.31-2.56 4.63-5.13 5.74-6.38 11.37-12.87c0.68-0.78 0.68-0.78 1.37-1.58q10.38-11.93 20.65-23.94 3.04-3.55 6.08-7.08 9.11-10.57 17.9-21.4 1.49-1.84 2.99-3.68 3.31-4.06 6.61-8.13 3.38-4.16 6.77-8.32c5.77-7.05 11.45-14.16 16.98-21.41q3.83-5 7.72-9.96 9.88-12.66 19.47-25.54 2.2-2.95 4.42-5.88c6.92-9.18 13.69-18.46 20.4-27.8q2.44-3.38 4.89-6.75c6.29-8.64 12.44-17.35 18.35-26.25q0.75-1.12 1.53-2.27 0.65-0.98 1.32-1.98c1.97-2.58 4.22-4.78 6.55-7.03-0.67 16.86-1.86 33.68-3.19 50.5q-0.08 1.03-0.16 2.09c-6.44 82.01-16.13 163.62-103.65 557.41q-0.44 1.38-0.9 2.8c-27.74 86.67-60.64 171.03-129.6 313.37q-2.12 4-4.24 8.02c-7.99 15.1-16.1 30.11-24.61 44.93q-2.6 4.54-5.19 9.09-18.71 32.73-39 64.5-2.23 3.51-4.43 7.04c-16.86 26.91-34.69 53.47-53.4 79.13q-1.65 2.26-3.3 4.53c-0.82 1.13-0.82 1.13-1.66 2.29q-2.53 3.48-5.03 6.98c-5.5 7.67-11.06 15.27-16.85 22.72q-4.35 5.61-8.63 11.28c-6.55 8.61-13.14 17.19-19.86 25.67q-2.06 2.61-4.1 5.23-11.76 15.04-24.11 29.58-4.35 5.13-8.59 10.34c-5.08 6.24-10.28 12.37-15.5 18.5q-0.75 0.88-1.51 1.78c-5.74 6.74-11.53 13.43-17.48 19.99q-2.78 3.09-5.51 6.23c-6.36 7.29-12.88 14.43-19.42 21.55q-4.2 4.57-8.33 9.2c-8.4 9.36-16.97 18.61-25.95 27.42-1.63 1.65-3.11 3.35-4.6 5.13-5.93 6.81-12.44 13.08-18.82 19.45q-2.14 2.15-4.29 4.29-4.47 4.48-8.95 8.95-5.71 5.71-11.42 11.42-4.42 4.43-8.84 8.85-2.11 2.1-4.21 4.21c-13.24 13.25-13.24 13.25-19.18 18.26-2.29 1.96-4.38 4.11-6.49 6.27-3.56 3.61-7.22 6.99-11.07 10.29-2.06 1.83-4 3.75-5.93 5.71-3.11 3.15-6.33 6.08-9.68 8.97-2.91 2.54-5.74 5.16-8.57 7.78q-0.83 0.77-1.68 1.55-1.69 1.57-3.39 3.14c-6.5 6.02-13 12.03-19.7 17.83-2.29 2-4.54 4.05-6.79 6.11-3.44 3.11-6.95 6.08-10.56 9-4.02 3.24-7.85 6.61-11.63 10.12-4.63 4.31-9.42 8.35-14.35 12.32-2.62 2.16-5.14 4.39-7.65 6.68-4.22 3.84-8.58 7.46-13.02 11.05-3.37 2.77-6.68 5.6-9.98 8.45q-8.89 7.63-18 15-1.87 1.53-3.75 3.06c-6.43 5.25-12.89 10.46-19.44 15.57q-6.78 5.28-13.31 10.87c-4.92 4.21-9.95 8.26-15.06 12.24-4.5 3.5-8.91 7.09-13.31 10.7-5.95 4.86-12.02 9.53-18.19 14.11-5.27 3.91-10.4 7.98-15.51 12.1q-6.59 5.3-13.32 10.43-4.65 3.55-9.25 7.16-12.72 9.97-25.75 19.51-8.16 5.99-16.11 12.25c-6.8 5.33-13.7 10.5-20.67 15.6-6.11 4.47-12.13 9.05-18.14 13.65-6.25 4.78-12.53 9.5-18.96 14.03-7.34 5.19-14.55 10.56-21.77 15.91q-5.98 4.41-11.96 8.81-7.15 5.26-14.29 10.54c-11.42 8.43-22.91 16.77-34.44 25.06q-13.89 10-27.66 20.17-9.13 6.72-18.34 13.34-8.17 5.89-16.27 11.89-10.32 7.62-20.73 15.11-8.17 5.89-16.27 11.89-10.32 7.62-20.73 15.11-8.17 5.89-16.27 11.89-9.21 6.81-18.5 13.5-19.12 13.79-37.95 27.97-7.59 5.68-15.24 11.28c-7.72 5.67-15.36 11.46-22.97 17.28q-8.69 6.64-17.53 13.1c-7.75 5.67-15.35 11.51-22.91 17.43q-6.45 5.04-12.96 10c-1.05 0.8-1.05 0.8-2.11 1.61q-4.25 3.24-8.5 6.48c-9.1 6.94-18.15 13.92-27.13 21.01q-3.47 2.73-6.94 5.46-1.76 1.38-3.52 2.76-4.31 3.39-8.63 6.76c-7.19 5.61-14.26 11.34-21.28 17.16q-6.71 5.55-13.58 10.89c-5.68 4.42-11.19 9.02-16.67 13.69q-4.25 3.61-8.58 7.12c-4.61 3.75-9.14 7.57-13.67 11.42q-5.09 4.31-10.27 8.52c-9.83 8.01-19.37 16.38-28.95 24.7q-4.6 4-9.25 7.96c-6.68 5.69-13.24 11.48-19.69 17.44q-4.29 3.93-8.69 7.73c-7.61 6.64-15.02 13.5-22.45 20.33q-2.99 2.74-5.98 5.48-3 2.74-5.99 5.49-1.6 1.47-3.21 2.94c-6.15 5.62-12.25 11.26-18.06 17.26-1.81 1.76-3.64 3.38-5.57 5.01-6.5 5.67-12.51 11.86-18.6 17.97q-2.01 2-4.02 4.01-4.19 4.19-8.38 8.39-5.35 5.35-10.7 10.7-4.14 4.14-8.28 8.28-1.97 1.97-3.95 3.94c-9 8.96-9 8.96-17.49 18.41-1.97 2.3-4.13 4.4-6.3 6.52-3.46 3.42-6.73 6.91-9.89 10.61-2.97 3.36-6.04 6.62-9.11 9.89-4.2 4.48-8.37 8.97-12.37 13.63-1.97 2.26-3.99 4.47-6 6.68-3.12 3.44-6.09 6.95-9 10.57-3.25 4.01-6.62 7.84-10.13 11.62-4.26 4.58-8.27 9.29-12.2 14.16-2.51 3.1-5.09 6.12-7.67 9.15-4.25 4.99-8.34 10.08-12.37 15.25-3.5 4.5-7.09 8.91-10.7 13.32-5.36 6.55-10.48 13.26-15.53 20.06q-3.87 5.19-7.83 10.32c-6.71 8.69-13.17 17.54-19.57 26.47q-2.46 3.43-4.95 6.84c-19.21 26.44-37.38 53.7-54.68 81.43-0.95 1.52-0.95 1.52-1.92 3.08q-14.47 23.2-28.08 46.92-0.81 1.41-1.64 2.86c-13.77 24.03-26.74 48.49-39.36 73.14-0.81 1.58-0.81 1.58-1.64 3.18-8.37 16.35-16.11 32.95-23.62 49.71q-3 6.69-6.05 13.36c-13.78 30.2-26.09 61.12-37.45 92.31q-0.7 1.9-1.39 3.79-1.32 3.64-2.63 7.29-0.58 1.61-1.19 3.27-0.51 1.43-1.04 2.91c-0.99 2.18-0.99 2.18-2.99 3.18-21.52-76.46-39.31-154.04-104.19-605-0.05-1.06-0.05-1.06-0.11-2.15q-0.4-7.92-0.7-15.85-0.06-1.53-0.13-3.11c-0.95-23.65-1.07-47.29-1.06-70.95q0-1.45 0-2.94c0.01-29.38 0.26-58.67 2.19-88q0.19-2.92 0.37-5.83c2.77-42.91 2.77-42.91 4.15-51.33 0.35-2.93 0.31-5-0.52-7.84-2.96-3.19-6.42-5.39-10.07-7.72-3.6-2.39-6.96-5.07-10.37-7.72q-2.21-1.69-4.42-3.38-5.2-3.99-10.39-7.99c-13.11-10.09-26.24-20.13-39.58-29.9-5.95-4.36-11.82-8.81-17.67-13.29-8.97-6.87-18.04-13.6-27.15-20.28q-3.57-2.62-7.13-5.25-11.65-8.62-23.41-17.09-8.47-6.1-16.81-12.38c-8.57-6.47-17.28-12.73-26-19q-15.01-10.79-29.89-21.77c-7.59-5.59-15.23-11.11-22.88-16.62q-6.74-4.86-13.48-9.74-5.61-4.05-11.21-8.08-12.78-9.2-25.43-18.56-8.02-5.91-16.11-11.73c-10.19-7.34-20.29-14.8-30.4-22.27q-3.58-2.65-7.16-5.29-1.18-0.87-2.39-1.76-6.83-5.03-13.72-9.97c-8.28-5.94-16.42-12.06-24.51-18.27q-8.31-6.36-16.82-12.44c-7.48-5.35-14.81-10.89-22.11-16.48q-8.71-6.67-17.58-13.14-10.32-7.58-20.39-15.48-8.82-6.89-17.73-13.65-1.34-1.01-2.71-2.06-2.58-1.96-5.15-3.92-13.87-10.57-27.56-21.38-3.51-2.76-7.02-5.52-2.63-2.06-5.25-4.12-3.48-2.74-6.96-5.46-11.99-9.41-23.87-18.95-3.46-2.77-6.92-5.53c-8.91-7.12-17.69-14.4-26.49-21.66q-5.87-4.84-11.76-9.65c-14.89-12.18-29.67-24.48-44.26-37.01q-5.15-4.42-10.34-8.79-7.86-6.62-15.46-13.54c-2.48-2.2-5.04-4.28-7.63-6.35-6.07-4.9-11.7-10.24-17.37-15.59q-4.62-4.33-9.42-8.45c-3.7-3.24-7.29-6.59-10.89-9.93q-3.46-3.15-6.99-6.2c-4.21-3.67-8.28-7.48-12.33-11.33q-7.78-7.38-15.68-14.62c-4.95-4.54-9.71-9.22-14.4-14.02-1.96-1.92-3.89-3.66-5.98-5.42-6.82-5.95-13.11-12.47-19.5-18.87q-2.15-2.14-4.29-4.29-4.48-4.47-8.95-8.95-5.71-5.71-11.42-11.42-4.43-4.42-8.85-8.84-2.1-2.11-4.21-4.21c-13.24-13.23-13.24-13.23-18.3-19.22-1.64-1.93-3.41-3.69-5.23-5.45-3.25-3.2-6.25-6.54-9.22-10-1.85-2.08-3.79-4.04-5.78-6-3.17-3.13-6.12-6.36-9.02-9.73-2.45-2.8-4.96-5.54-7.48-8.27q-5.47-5.93-10.77-12.02c-2-2.29-4.05-4.54-6.1-6.79-3.13-3.47-6.14-7-9.07-10.63-3.07-3.8-6.25-7.46-9.56-11.06-4.06-4.41-7.89-8.96-11.65-13.62q-3.88-4.73-7.85-9.38-7.34-8.67-14.5-17.5-1.55-1.89-3.1-3.79c-5.86-7.16-11.63-14.38-17.25-21.75q-3.83-5-7.72-9.96-10.64-13.62-20.93-27.5-0.82-1.11-1.67-2.25-12.03-16.22-23.81-32.63-1.44-2.01-2.9-4.03c-9.95-13.78-19.28-27.99-28.68-42.16q-3.97-5.99-7.98-11.96c-34.52-51.43-65.52-105.32-94.01-160.3q-2.86-5.51-5.77-10.99c-14.49-27.36-27.64-55.37-40.26-83.62q-1.38-3.09-2.77-6.18c-39.58-88.1-71.97-179.62-184.03-784q-0.08-1.11-0.16-2.24-0.55-7.32-1.08-14.65-0.13-1.84-0.27-3.73-0.12-1.7-0.25-3.44-0.1-1.47-0.21-2.99c-0.16-2.95-0.18-5.88-0.15-8.83z"/>
	<path class="s1" d="m34 657c4.68 4.3 8.11 9.21 11.69 14.44q1.88 2.71 3.76 5.42 0.9 1.32 1.84 2.67c3.41 4.93 6.91 9.79 10.41 14.66q2.12 2.96 4.24 5.93c6.52 9.12 13.22 18.08 20.04 26.98q6.74 8.81 13.27 17.77c5.15 7.04 10.48 13.89 15.96 20.66 2.62 3.24 5.15 6.53 7.67 9.85 5.12 6.7 10.49 13.18 15.87 19.68q3.77 4.55 7.44 9.19c3.47 4.37 7.06 8.62 10.68 12.87q4.34 5.11 8.57 10.32c4.89 6.01 9.94 11.88 15 17.75q2.33 2.71 4.64 5.43c5.46 6.41 10.99 12.72 16.69 18.93 2.53 2.77 5 5.6 7.46 8.43 2.79 3.19 5.63 6.33 8.47 9.47q2.2 2.44 4.38 4.88c5.11 5.71 10.31 11.33 15.55 16.92q5.09 5.44 10.12 10.93c4.81 5.24 9.7 10.35 14.8 15.31 1.89 1.94 3.63 3.88 5.38 5.94 4.95 5.67 10.3 10.95 15.63 16.26q1.67 1.67 3.34 3.35 3.49 3.49 6.98 6.97 4.44 4.44 8.88 8.88 3.44 3.45 6.89 6.9 1.64 1.63 3.27 3.27c5.32 5.33 10.64 10.6 16.39 15.47 3.67 3.19 7 6.75 10.4 10.22 3.61 3.66 7.34 7.09 11.23 10.45 3.57 3.12 6.99 6.41 10.43 9.67q12.06 11.41 24.58 22.33c4.92 4.32 9.76 8.74 14.63 13.13 8.77 7.9 17.68 15.61 26.71 23.22q2.53 2.14 5.05 4.29c4.98 4.22 9.96 8.42 15.03 12.54 4.4 3.57 8.68 7.26 12.94 11 5.33 4.65 10.76 9.12 16.35 13.46 4.5 3.49 8.93 7.06 13.34 10.66q10.07 8.2 20.31 16.18 2.47 1.94 4.94 3.89c15.01 11.87 30.3 23.38 45.63 34.84q3.54 2.65 7.06 5.31c9 6.78 18.04 13.47 27.23 19.98q5.31 3.79 10.58 7.61 1.14 0.82 2.31 1.67 5.67 4.09 11.31 8.21c8.95 6.52 17.99 12.84 27.15 19.04 4.51 3.06 9 6.12 13.44 9.26 17.87 12.6 36.18 24.53 54.46 36.52q7.9 5.19 15.76 10.45 8.62 5.76 17.38 11.29 2.85 1.8 5.69 3.61 1.42 0.89 2.88 1.82 4.22 2.68 8.43 5.37c17.16 10.96 34.46 21.67 51.87 32.23q8.12 4.93 16.18 9.96c12.38 7.73 24.96 15.08 37.56 22.43q6.35 3.71 12.64 7.52c18.89 11.39 38.07 22.32 57.19 33.31 1.7 0.98 1.7 0.98 3.44 1.98q20.78 11.96 41.76 23.58 10.78 5.97 21.49 12.06c8.83 5.02 17.74 9.9 26.68 14.72q8.85 4.76 17.63 9.66c16.32 9.11 32.82 17.91 49.29 26.77q12.34 6.65 24.67 13.33 12.73 6.9 25.49 13.75 8.75 4.71 17.47 9.48c11.65 6.39 23.39 12.62 35.14 18.82q15.25 8.06 30.45 16.23 12.38 6.64 24.79 13.21c10.6 5.62 21.17 11.27 31.69 17.03q10.36 5.67 20.76 11.25 1.62 0.88 3.29 1.78 3.32 1.78 6.64 3.56 14.66 7.89 29.32 15.79 1.48 0.8 3.01 1.62c14.85 8.01 29.64 16.13 44.4 24.29q6.51 3.6 13.04 7.17c12.41 6.81 24.74 13.72 36.95 20.91q9.7 5.69 19.6 11.01c9.73 5.25 19.28 10.77 28.81 16.37q7.83 4.59 15.71 9.09c12.76 7.31 25.36 14.87 37.91 22.53q8.54 5.21 17.13 10.32c7.88 4.71 15.66 9.58 23.41 14.5q6.85 4.34 13.73 8.61c19.67 12.23 38.96 25 58.24 37.83q1.23 0.82 2.5 1.67 16.38 10.89 32.56 22.08 1.39 0.97 2.83 1.96 17.73 12.32 35.17 25.04 1.15 0.84 2.34 1.7c9.48 6.91 18.86 13.94 28.09 21.18q7.37 5.76 14.88 11.31c6.12 4.54 11.96 9.32 17.74 14.29 3.42 2.92 6.93 5.74 10.46 8.54 3.75 2.99 7.44 6.04 11.14 9.1 2.4 1.98 2.4 1.98 5.35 3.88-1.58 4.38-5.02 6.82-8.5 9.69q-1.92 1.61-3.83 3.22-0.94 0.78-1.9 1.59c-2.37 2.01-4.67 4.09-6.96 6.19-3.3 3.01-6.69 5.84-10.19 8.62-4.76 3.85-9.06 8.01-13.34 12.38-3.36 3.42-6.83 6.62-10.49 9.74-2.42 2.13-4.66 4.42-6.92 6.73-1.81 1.78-3.67 3.43-5.6 5.08-4.18 3.64-8.12 7.46-12.02 11.38-1.06 1.06-1.06 1.06-2.14 2.13q-2.22 2.22-4.43 4.44-3.36 3.36-6.72 6.72-2.17 2.17-4.34 4.34-0.98 0.98-2 1.99c-3.83 3.85-7.48 7.8-11.01 11.91-2.78 3.2-5.7 6.27-8.61 9.35-4.77 5.09-9.46 10.21-14 15.5q-1.46 1.68-2.92 3.36c-9.9 11.37-19.77 22.77-29.08 34.64q-0.72 0.92-1.46 1.86c-26.88 34.23-52.24 69.73-74.54 107.14q-0.84 1.4-1.7 2.85-12.64 21.3-24.3 43.15-0.71 1.33-1.44 2.69c-28.33 53.05-53.37 109.56-69.51 167.58q-1.53 5.37-3.16 10.71-4.11 13.55-7.78 27.23-1.99 7.42-4.17 14.79c-2.75 9.56-4.81 19.29-6.94 29-0.34 1.56-0.34 1.56-0.7 3.15-3.18 14.45-6.15 28.95-8.99 43.47q-0.21 1.1-0.44 2.24c-3.65 18.7-6.52 37.42-8.87 56.33q-0.56 4.47-1.13 8.94-0.37 2.96-0.74 5.91-2.02 15.99-4.13 31.96-2.12-1.4-4.24-2.8-1.17-0.78-2.38-1.58c-3.76-2.56-7.31-5.36-10.88-8.18q-2.38-1.87-4.76-3.73-1.19-0.93-2.41-1.89c-5.64-4.4-11.34-8.73-17.04-13.07q-3.68-2.81-7.36-5.63c-9.19-7.03-18.43-13.99-27.77-20.83-5.94-4.36-11.81-8.81-17.66-13.29-8.97-6.87-18.04-13.6-27.15-20.28q-3.57-2.62-7.13-5.25-11.65-8.62-23.41-17.1-8.47-6.09-16.81-12.37c-8.57-6.47-17.28-12.73-26-19q-15.01-10.79-29.89-21.77c-7.59-5.59-15.23-11.11-22.88-16.62q-6.74-4.86-13.48-9.74-5.61-4.05-11.21-8.08-12.78-9.2-25.43-18.56-8.02-5.91-16.11-11.73c-10.19-7.34-20.29-14.8-30.4-22.27q-3.58-2.65-7.16-5.29-1.18-0.87-2.39-1.76-6.83-5.03-13.72-9.97c-8.28-5.94-16.42-12.06-24.51-18.27q-8.31-6.36-16.82-12.44c-7.48-5.35-14.81-10.89-22.11-16.48q-8.71-6.67-17.58-13.15-10.32-7.57-20.39-15.47-8.82-6.89-17.73-13.65-1.34-1.01-2.71-2.06-2.58-1.96-5.15-3.92-13.87-10.57-27.56-21.38-3.51-2.76-7.02-5.52-2.63-2.06-5.25-4.12-3.48-2.74-6.96-5.46-11.99-9.41-23.87-18.95-3.46-2.77-6.92-5.53c-8.91-7.12-17.69-14.4-26.49-21.66q-5.87-4.84-11.76-9.65c-14.89-12.18-29.67-24.48-44.26-37.01q-5.15-4.42-10.34-8.79-7.86-6.62-15.46-13.54c-2.48-2.2-5.04-4.28-7.63-6.35-6.07-4.9-11.7-10.24-17.37-15.59q-4.62-4.33-9.42-8.45c-3.7-3.24-7.29-6.59-10.89-9.93q-3.46-3.15-6.99-6.2c-4.21-3.67-8.28-7.48-12.33-11.33q-7.78-7.38-15.68-14.62c-4.95-4.54-9.71-9.22-14.4-14.02-1.96-1.92-3.89-3.66-5.98-5.42-6.82-5.95-13.11-12.47-19.5-18.87q-2.15-2.14-4.29-4.29-4.48-4.47-8.95-8.95-5.71-5.71-11.42-11.42-4.43-4.42-8.85-8.84-2.1-2.11-4.21-4.21c-13.24-13.23-13.24-13.23-18.3-19.22-1.64-1.93-3.41-3.69-5.23-5.45-3.25-3.2-6.25-6.54-9.22-10-1.85-2.08-3.79-4.04-5.78-6-3.17-3.13-6.12-6.36-9.02-9.73-2.45-2.8-4.96-5.54-7.48-8.27q-5.47-5.93-10.77-12.02c-2-2.29-4.05-4.54-6.1-6.79-3.13-3.47-6.14-7-9.07-10.63-3.07-3.8-6.25-7.46-9.56-11.06-4.06-4.41-7.89-8.96-11.65-13.62q-3.88-4.73-7.85-9.38-7.34-8.67-14.5-17.5-1.55-1.89-3.1-3.79c-5.86-7.16-11.63-14.38-17.25-21.75q-3.83-5-7.72-9.96-10.64-13.62-20.93-27.5-0.82-1.11-1.67-2.25-12.03-16.22-23.81-32.63-1.44-2.01-2.9-4.03c-9.95-13.78-19.28-27.99-28.68-42.16q-3.97-5.99-7.98-11.96c-34.52-51.43-65.52-105.32-94.01-160.3q-2.86-5.51-5.77-10.99c-14.49-27.36-27.64-55.37-40.26-83.62q-1.38-3.09-2.77-6.18c-39.58-88.1-71.97-179.62-184.03-784q-0.08-1.11-0.16-2.24-0.55-7.32-1.08-14.65-0.13-1.84-0.27-3.73-0.12-1.7-0.25-3.44-0.1-1.47-0.21-2.99c-0.16-2.95-0.18-5.88-0.15-8.83z"/>
	<path class="s2" d="m500 114c2.86 1.35 5.34 2.88 7.88 4.77q1.11 0.82 2.26 1.67c1.2 0.9 1.2 0.9 2.42 1.81q2.58 1.91 5.16 3.83c1.32 0.98 1.32 0.98 2.66 1.98q6.05 4.48 12.12 8.94 2.38 1.75 4.75 3.5 1.17 0.86 2.38 1.75 13.06 9.63 26.12 19.25 1.17 0.86 2.38 1.75 2.37 1.75 4.74 3.5 5.99 4.41 11.99 8.82 12.09 8.88 24.09 17.9c7.5 5.63 15.07 11.19 22.63 16.75q5.96 4.39 11.92 8.78 2.37 1.75 4.75 3.5 4.75 3.5 9.5 7 1.17 0.86 2.38 1.75 2.37 1.75 4.74 3.5 5.99 4.41 11.99 8.82 12.09 8.88 24.09 17.9c7.5 5.63 15.07 11.19 22.63 16.75q5.96 4.39 11.92 8.78 2.37 1.75 4.75 3.5 4.75 3.5 9.5 7 1.17 0.86 2.38 1.75 2.37 1.75 4.74 3.5 5.99 4.41 11.99 8.82 12.09 8.88 24.09 17.9c7.5 5.63 15.07 11.19 22.63 16.75q5.96 4.39 11.92 8.78 2.37 1.75 4.75 3.5 4.75 3.5 9.5 7 1.17 0.86 2.38 1.75 2.37 1.75 4.74 3.5 5.99 4.41 11.99 8.82 12.09 8.88 24.09 17.9c7.5 5.63 15.07 11.19 22.63 16.75q5.96 4.39 11.92 8.78 2.37 1.75 4.75 3.5 4.75 3.5 9.5 7 1.17 0.86 2.38 1.75 2.37 1.75 4.74 3.5 5.99 4.41 11.99 8.82 12.09 8.88 24.09 17.9c7.5 5.63 15.07 11.19 22.63 16.75q5.96 4.39 11.92 8.78 2.37 1.75 4.75 3.5 4.75 3.5 9.5 7 1.17 0.86 2.38 1.75 2.37 1.75 4.74 3.5 5.99 4.41 11.99 8.82 12.09 8.88 24.09 17.9c7.5 5.63 15.07 11.19 22.63 16.75q5.96 4.39 11.92 8.78 2.37 1.75 4.75 3.5 14.25 10.5 28.5 21 1.17 0.86 2.38 1.75 2.37 1.75 4.74 3.5 5.99 4.41 11.99 8.82 12.09 8.88 24.09 17.9c7.5 5.63 15.07 11.19 22.63 16.75q5.96 4.39 11.92 8.78 2.37 1.75 4.75 3.5 4.75 3.5 9.5 7c1.18 0.87 1.18 0.87 2.38 1.75q2.37 1.75 4.74 3.5 5.99 4.41 11.99 8.82 12.09 8.88 24.09 17.9c7.5 5.63 15.07 11.19 22.63 16.75q5.96 4.39 11.92 8.78 2.37 1.75 4.75 3.5 4.75 3.5 9.5 7c1.18 0.87 1.18 0.87 2.38 1.75q2.37 1.75 4.74 3.5 5.99 4.41 11.99 8.82 12.09 8.88 24.09 17.9c7.5 5.63 15.07 11.19 22.63 16.75q5.96 4.39 11.92 8.78 2.37 1.75 4.75 3.5 14.25 10.5 28.5 21c1.18 0.87 1.18 0.87 2.38 1.75q2.37 1.75 4.74 3.5 5.99 4.41 11.99 8.82 12.09 8.88 24.09 17.9c7.5 5.63 15.07 11.19 22.63 16.75q5.96 4.39 11.92 8.78 2.37 1.75 4.75 3.5 4.75 3.5 9.5 7 1.17 0.86 2.38 1.75 2.37 1.75 4.74 3.5 5.99 4.41 11.99 8.82 12.09 8.88 24.09 17.9c7.5 5.63 15.07 11.19 22.63 16.75q5.96 4.39 11.92 8.78 2.37 1.75 4.75 3.5 4.75 3.5 9.5 7 1.17 0.86 2.38 1.75 2.37 1.75 4.74 3.5 5.99 4.41 11.99 8.82 12.09 8.88 24.09 17.9c7.5 5.63 15.07 11.19 22.63 16.75q5.96 4.39 11.92 8.78 2.37 1.75 4.75 3.5c9.5 7 9.5 7 11.88 8.75q2.36 1.75 4.73 3.49 6.04 4.45 12.07 8.9 7.02 5.19 14.07 10.36 0.98 0.72 2 1.47c37.31 27.41 82.78 39.25 128.81 32.34q4.62-0.79 9.19-1.81 1.2-0.26 2.43-0.54c29.16-6.65 52.36-20.98 76.08-38.61q5.99-4.44 11.99-8.85 2.38-1.75 4.75-3.5c9.5-7 9.5-7 11.88-8.75q2.37-1.75 4.74-3.5 5.99-4.41 11.99-8.82c7.4-5.45 14.79-10.9 22.14-16.43 8.15-6.13 16.36-12.18 24.58-18.22q5.96-4.39 11.92-8.78 2.37-1.75 4.75-3.5c1.18-0.87 1.18-0.87 2.38-1.75 7.12-5.25 7.12-5.25 9.5-7q2.37-1.75 4.74-3.5 5.99-4.41 11.99-8.82c7.4-5.45 14.79-10.9 22.14-16.43 8.15-6.13 16.36-12.18 24.58-18.22q5.96-4.39 11.92-8.78 2.37-1.75 4.75-3.5c1.18-0.87 1.18-0.87 2.38-1.75 26.12-19.25 26.12-19.25 28.5-21q2.37-1.75 4.74-3.5 5.99-4.41 11.99-8.82c7.4-5.45 14.79-10.9 22.14-16.43 8.15-6.13 16.36-12.18 24.58-18.22q5.96-4.39 11.92-8.78 2.37-1.75 4.75-3.5c1.18-0.87 1.18-0.87 2.38-1.75 7.12-5.25 7.12-5.25 9.5-7q2.37-1.75 4.74-3.5 5.99-4.41 11.99-8.82c7.4-5.45 14.79-10.9 22.14-16.43 8.15-6.13 16.36-12.18 24.58-18.22q5.96-4.39 11.92-8.78 2.37-1.75 4.75-3.5c1.18-0.87 1.18-0.87 2.38-1.75 7.12-5.25 7.12-5.25 9.5-7q2.37-1.75 4.74-3.5 5.99-4.41 11.99-8.82c7.4-5.45 14.79-10.9 22.14-16.43 8.15-6.13 16.36-12.18 24.58-18.22q5.96-4.39 11.92-8.78 2.37-1.75 4.75-3.5c1.18-0.87 1.18-0.87 2.38-1.75 7.12-5.25 7.12-5.25 9.5-7q2.37-1.75 4.74-3.5 5.99-4.41 11.99-8.82c7.4-5.45 14.79-10.9 22.14-16.43 8.15-6.13 16.36-12.18 24.58-18.22q5.96-4.39 11.92-8.78 2.37-1.75 4.75-3.5c1.18-0.87 1.18-0.87 2.38-1.75 7.12-5.25 7.12-5.25 9.5-7q2.37-1.75 4.74-3.5 5.99-4.41 11.99-8.82c7.4-5.45 14.79-10.9 22.14-16.43 8.15-6.13 16.36-12.18 24.58-18.22q5.96-4.39 11.92-8.78 2.37-1.75 4.75-3.5c1.18-0.87 1.18-0.87 2.38-1.75 26.12-19.25 26.12-19.25 28.5-21q2.37-1.75 4.74-3.5 5.99-4.41 11.99-8.82c7.4-5.45 14.79-10.9 22.14-16.43 8.15-6.13 16.36-12.18 24.58-18.22q5.96-4.39 11.92-8.78 2.37-1.75 4.75-3.5c1.18-0.87 1.18-0.87 2.38-1.75 7.12-5.25 7.12-5.25 9.5-7q2.37-1.75 4.74-3.5 5.99-4.41 11.99-8.82c7.4-5.45 14.79-10.9 22.14-16.43 8.15-6.13 16.36-12.18 24.58-18.22q5.96-4.39 11.92-8.78 2.37-1.75 4.75-3.5 1.17-0.86 2.38-1.75c7.12-5.25 7.12-5.25 9.5-7q2.37-1.75 4.74-3.5 5.99-4.41 11.99-8.82c7.4-5.45 14.79-10.9 22.14-16.43 8.15-6.13 16.36-12.18 24.58-18.22q5.96-4.39 11.92-8.78 2.37-1.75 4.75-3.5 1.17-0.86 2.38-1.75c7.12-5.25 7.12-5.25 9.5-7q2.37-1.75 4.74-3.5 5.99-4.41 11.99-8.82c7.4-5.45 14.79-10.9 22.14-16.43 8.15-6.13 16.36-12.18 24.58-18.22q5.96-4.39 11.92-8.78 2.37-1.75 4.75-3.5c1.18-0.87 1.18-0.87 2.38-1.75 7.12-5.25 7.12-5.25 9.5-7q2.37-1.75 4.74-3.5 5.99-4.41 11.99-8.82c7.4-5.45 14.79-10.9 22.14-16.43 8.15-6.13 16.36-12.18 24.58-18.22q5.96-4.39 11.92-8.78 2.37-1.75 4.75-3.5c1.18-0.87 1.18-0.87 2.38-1.75 26.12-19.25 26.12-19.25 28.5-21q2.36-1.74 4.72-3.48 6.12-4.52 12.25-9.02 1.26-0.92 2.55-1.87 2.38-1.75 4.77-3.5c5.26-3.87 10.44-7.85 15.58-11.88q0.99 0.49 2 1c-4.93 6.25-10.05 12.21-15.5 18-3.82 4.06-7.51 8.14-11 12.5-4 5-8.31 9.65-12.7 14.31-3.25 3.46-6.33 6.98-9.3 10.69-4 5-8.31 9.65-12.7 14.31-3.25 3.46-6.33 6.98-9.3 10.69-4 5-8.31 9.65-12.7 14.31-3.25 3.46-6.33 6.98-9.3 10.69-4 5-8.31 9.65-12.7 14.31-3.25 3.46-6.33 6.98-9.3 10.69-4 5-8.31 9.65-12.7 14.31-3.25 3.46-6.33 6.98-9.3 10.69-4 5-8.31 9.65-12.7 14.31-3.25 3.46-6.33 6.98-9.3 10.69-4 5-8.31 9.65-12.7 14.31-3.25 3.46-6.33 6.98-9.3 10.69-4 5-8.31 9.65-12.7 14.31-3.25 3.46-6.33 6.98-9.3 10.69-4 5-8.31 9.65-12.7 14.31-3.25 3.46-6.33 6.98-9.3 10.69-4 5-8.31 9.65-12.7 14.31-3.25 3.46-6.33 6.98-9.3 10.69-4.56 5.7-9.52 10.97-14.5 16.29-4.38 4.67-8.55 9.51-12.7 14.38q-1.52 1.79-3.05 3.58-0.77 0.9-1.56 1.83c-3.82 4.46-7.76 8.79-11.76 13.1-2.9 3.14-5.63 6.36-8.3 9.69-4.06 5.04-8.4 9.73-12.83 14.44-3.25 3.46-6.33 6.98-9.3 10.69-4 5-8.31 9.65-12.7 14.31-3.25 3.46-6.33 6.98-9.3 10.69-4 5-8.31 9.65-12.7 14.31-3.25 3.46-6.33 6.98-9.3 10.69-4 5-8.31 9.65-12.7 14.31-3.25 3.46-6.33 6.98-9.3 10.69-4 5-8.31 9.65-12.7 14.31-3.25 3.46-6.33 6.98-9.3 10.69-4 5-8.31 9.65-12.7 14.31-3.25 3.46-6.33 6.98-9.3 10.69-4 5-8.31 9.65-12.7 14.31-3.25 3.46-6.33 6.98-9.3 10.69-4 5-8.31 9.65-12.7 14.31-3.25 3.46-6.33 6.98-9.3 10.69-4 5-8.31 9.65-12.7 14.31-3.25 3.46-6.33 6.98-9.3 10.69-4 5-8.31 9.65-12.7 14.31-3.25 3.46-6.33 6.98-9.3 10.69-4 5-8.31 9.65-12.7 14.31-3.25 3.46-6.33 6.98-9.3 10.69-4 5-8.31 9.65-12.7 14.31-3.25 3.46-6.33 6.98-9.3 10.69-4 5-8.31 9.65-12.7 14.31-3.25 3.46-6.33 6.98-9.3 10.69-4 5-8.31 9.65-12.7 14.31-3.25 3.46-6.33 6.98-9.3 10.69-4 5-8.31 9.65-12.7 14.31-3.25 3.46-6.33 6.98-9.3 10.69-4 5-8.31 9.65-12.7 14.31-3.25 3.46-6.33 6.98-9.3 10.69-4 5-8.31 9.65-12.7 14.31-3.25 3.46-6.33 6.98-9.3 10.69-4 5-8.31 9.65-12.7 14.31-3.25 3.46-6.33 6.98-9.3 10.69-4 5-8.31 9.65-12.7 14.31-3.25 3.46-6.33 6.98-9.3 10.69-4 5-8.31 9.65-12.7 14.31-3.25 3.46-6.33 6.98-9.3 10.69-4 5-8.31 9.65-12.7 14.31-3.25 3.46-6.33 6.98-9.3 10.69-4 5-8.31 9.65-12.7 14.31-3.25 3.46-6.33 6.98-9.3 10.69-4 5-8.31 9.65-12.7 14.31-3.25 3.46-6.33 6.98-9.3 10.69-4 5-8.31 9.65-12.7 14.31-3.25 3.46-6.33 6.98-9.3 10.69-4 5-8.31 9.65-12.7 14.31-3.25 3.46-6.33 6.98-9.3 10.69-4 5-8.31 9.65-12.7 14.31-3.25 3.46-6.33 6.98-9.3 10.69-4 5-8.31 9.65-12.7 14.31-3.25 3.46-6.33 6.98-9.3 10.69-4 5-8.31 9.65-12.7 14.31-3.25 3.46-6.33 6.98-9.3 10.69-4 5-8.31 9.65-12.7 14.31-3.25 3.46-6.33 6.98-9.3 10.69-4 5-8.31 9.65-12.7 14.31-3.25 3.46-6.33 6.98-9.3 10.69-4 5-8.31 9.65-12.7 14.31-3.25 3.46-6.33 6.98-9.3 10.69-4 5-8.31 9.65-12.7 14.31-3.25 3.46-6.33 6.98-9.3 10.69-4 5-8.31 9.65-12.7 14.31-3.25 3.46-6.33 6.98-9.3 10.69-4 5-8.31 9.65-12.7 14.31-3.25 3.46-6.33 6.98-9.3 10.69-4 5-8.31 9.65-12.7 14.31-3.25 3.46-6.33 6.98-9.3 10.69-4 5-8.31 9.65-12.7 14.31-3.25 3.46-6.33 6.98-9.3 10.69-4 5-8.31 9.65-12.7 14.31-3.25 3.46-6.33 6.98-9.3 10.69-4 5-8.31 9.65-12.7 14.31-3.25 3.46-6.33 6.98-9.3 10.69-4 5-8.31 9.65-12.7 14.31-3.25 3.46-6.33 6.98-9.3 10.69-4 5-8.31 9.65-12.7 14.31-3.25 3.46-6.33 6.98-9.3 10.69-4 5-8.31 9.65-12.7 14.31-3.25 3.46-6.33 6.98-9.3 10.69-4.05 5.06-8.4 9.79-12.84 14.51-2.83 3.01-5.61 6.04-8.28 9.18-27.92 32.09-67.79 49.73-109.82 53.44-24.9 1.64-48.97-1.56-72.56-9.63q-1.63-0.55-3.3-1.12c-28.87-10.42-53.58-30.11-72.43-54.11-2.78-3.4-5.76-6.58-8.77-9.77-4.61-4.89-8.93-9.91-13.12-15.16-2.84-3.4-5.84-6.62-8.88-9.84-4.61-4.89-8.93-9.91-13.12-15.16-2.84-3.4-5.84-6.62-8.88-9.84-4.61-4.89-8.93-9.91-13.12-15.16-2.84-3.4-5.84-6.62-8.88-9.84-4.61-4.89-8.93-9.91-13.12-15.16-2.84-3.4-5.84-6.62-8.88-9.84-4.61-4.89-8.93-9.91-13.12-15.16-2.84-3.4-5.84-6.62-8.88-9.84-3.82-4.06-7.51-8.14-11-12.5-4.56-5.7-9.52-10.97-14.5-16.29-4.38-4.67-8.55-9.51-12.7-14.38q-1.52-1.79-3.05-3.58-0.77-0.9-1.56-1.83-5.07-5.91-10.38-11.61c-3.37-3.62-6.59-7.32-9.68-11.18-4.06-5.04-8.4-9.73-12.83-14.44-4.02-4.29-7.75-8.75-11.42-13.35-2.84-3.4-5.84-6.62-8.88-9.84-4.61-4.89-8.93-9.91-13.12-15.16-2.84-3.4-5.84-6.62-8.88-9.84-4.61-4.89-8.93-9.91-13.12-15.16-2.84-3.4-5.84-6.62-8.88-9.84-4.61-4.89-8.93-9.91-13.12-15.16-2.84-3.4-5.84-6.62-8.88-9.84-4.61-4.89-8.93-9.91-13.12-15.16-2.84-3.4-5.84-6.62-8.88-9.84-4.61-4.89-8.93-9.91-13.12-15.16-2.84-3.4-5.84-6.62-8.88-9.84-4.61-4.89-8.93-9.91-13.12-15.16-2.84-3.4-5.84-6.62-8.88-9.84-4.61-4.89-8.93-9.91-13.12-15.16-2.84-3.4-5.84-6.62-8.88-9.84-4.61-4.89-8.93-9.91-13.12-15.16-2.84-3.4-5.84-6.62-8.88-9.84-4.61-4.89-8.93-9.91-13.12-15.16-2.84-3.4-5.84-6.62-8.88-9.84-4.59-4.88-8.91-9.88-13.09-15.12-3.57-4.26-7.39-8.28-11.25-12.29-4.16-4.38-4.16-4.38-4.16-6.59-0.89-0.4-0.89-0.4-1.79-0.81-2.22-1.2-3.75-2.44-5.57-4.17-0.95-0.9-0.95-0.9-1.92-1.82q-1-0.96-2.03-1.95-2.17-2.06-4.33-4.11-1.09-1.04-2.21-2.11-2.98-2.81-6.01-5.57c-8.56-7.84-16.59-16.04-24.43-24.6q-2.38-2.58-4.78-5.15c-5.03-5.4-9.86-10.92-14.49-16.67q-2.75-3.42-5.54-6.79c-8.29-10.06-15.91-20.43-23.28-31.18-5.72-8.33-11.34-16.33-18.34-23.65-2.34-2.48-4.46-5.06-6.59-7.73-4.08-5.06-8.44-9.77-12.89-14.5-4.02-4.29-7.75-8.75-11.42-13.35-2.84-3.4-5.84-6.62-8.88-9.84-4.61-4.89-8.93-9.91-13.12-15.16-2.84-3.4-5.84-6.62-8.88-9.84-4.61-4.89-8.93-9.91-13.12-15.16-2.84-3.4-5.84-6.62-8.88-9.84-4.61-4.89-8.93-9.91-13.12-15.16-2.84-3.4-5.84-6.62-8.88-9.84-4.61-4.89-8.93-9.91-13.12-15.16-2.84-3.4-5.84-6.62-8.88-9.84-4.61-4.89-8.93-9.91-13.12-15.16-2.84-3.4-5.84-6.62-8.88-9.84-4.61-4.89-8.93-9.91-13.12-15.16-2.84-3.4-5.84-6.62-8.88-9.84-4.61-4.89-8.93-9.91-13.12-15.16-2.84-3.4-5.84-6.62-8.88-9.84-4.61-4.89-8.93-9.91-13.12-15.16-2.84-3.4-5.84-6.62-8.88-9.84-4.61-4.89-8.93-9.91-13.12-15.16-2.84-3.4-5.84-6.62-8.88-9.84-4.61-4.89-8.93-9.91-13.12-15.16-2.84-3.4-5.84-6.62-8.88-9.84-4.61-4.89-8.93-9.91-13.12-15.16-2.84-3.4-5.84-6.62-8.88-9.84-4.61-4.89-8.93-9.91-13.12-15.16-2.84-3.4-5.84-6.62-8.88-9.84-4.61-4.89-8.93-9.91-13.12-15.16-2.84-3.4-5.84-6.62-8.88-9.84-4.61-4.89-8.93-9.91-13.12-15.16-2.84-3.4-5.84-6.62-8.88-9.84-4.61-4.89-8.93-9.91-13.12-15.16-2.84-3.4-5.84-6.62-8.88-9.84-4.61-4.89-8.93-9.91-13.12-15.16-2.84-3.4-5.84-6.62-8.88-9.84-4.61-4.89-8.93-9.91-13.12-15.16-2.84-3.4-5.84-6.62-8.88-9.84-4.61-4.89-8.93-9.91-13.12-15.16-2.84-3.4-5.84-6.62-8.88-9.84-4.61-4.89-8.93-9.91-13.12-15.16-2.84-3.4-5.84-6.62-8.88-9.84-4.61-4.89-8.93-9.91-13.12-15.16-2.84-3.4-5.84-6.62-8.88-9.84-4.61-4.89-8.93-9.91-13.12-15.16-2.84-3.4-5.84-6.62-8.88-9.84-4.61-4.89-8.93-9.91-13.12-15.16-2.84-3.4-5.84-6.62-8.88-9.84-4.61-4.89-8.93-9.91-13.12-15.16-2.84-3.4-5.84-6.62-8.88-9.84-4.61-4.89-8.93-9.91-13.12-15.16-2.84-3.4-5.84-6.62-8.88-9.84-4.61-4.89-8.93-9.91-13.12-15.16-2.84-3.4-5.84-6.62-8.88-9.84-4.61-4.89-8.93-9.91-13.12-15.16-2.84-3.4-5.84-6.62-8.88-9.84-4.61-4.89-8.93-9.91-13.12-15.16-3.37-4.02-6.97-7.81-10.57-11.63-4.18-4.46-8.05-9.08-11.86-13.86-1.75-2.11-3.55-4.02-5.51-5.91q-1.2-1.2-2.44-2.44 0-0.98 0-2z"/>
	<path class="s3" d="m3555 3773c146.45 0 146.45 0 168 21 6.76 6.94 12.67 14.54 18.59 22.19q3.44 4.42 6.91 8.81 4.1 5.21 8.18 10.43 7.34 9.4 14.88 18.63c3.91 4.78 7.76 9.59 11.5 14.5q5.35 7.01 10.88 13.88c6.2 7.72 12.31 15.5 18.41 23.29q7.77 9.93 15.65 19.77c6.62 8.26 13.16 16.58 19.68 24.93q7.34 9.39 14.88 18.63 7.14 8.76 13.99 17.74c6.52 8.54 13.22 16.94 20.01 25.26 3.91 4.78 7.76 9.59 11.5 14.5q5.35 7.01 10.88 13.88c6.2 7.72 12.31 15.5 18.41 23.29q7.77 9.93 15.65 19.77c6.62 8.26 13.16 16.58 19.68 24.93q7.34 9.39 14.88 18.63 7.14 8.76 13.99 17.74c6.52 8.54 13.22 16.94 20.01 25.26 3.91 4.78 7.76 9.59 11.5 14.5q5.35 7.01 10.88 13.88c6.2 7.72 12.31 15.5 18.41 23.29q7.77 9.93 15.65 19.77c6.62 8.26 13.16 16.58 19.68 24.93q7.34 9.39 14.88 18.63 7.13 8.75 13.97 17.72 4.01 5.23 8.09 10.41 0.63 0.79 1.28 1.62 6.01 7.62 12.1 15.19-0.13-1.8-0.26-3.65-0.49-6.97-0.97-13.93-0.2-2.96-0.41-5.93c-2.27-31.91-2.51-63.75-2.48-95.72q0.01-8.84 0.01-17.68 0-15.26 0-30.53 0.01-15.98 0.02-31.96 0-0.99 0-2.02 0-5.07 0-10.15 0-35.81 0.01-71.63 0.02-34.76 0.03-69.52c0-1.07 0-1.07 0-2.17q0-10.79 0-21.58 0-21.97 0.01-43.94 0-1.01 0-2.04 0.01-67.28 0.04-134.55c59.73 0 119.46 0 181 0 0 291.06 0 582.12 0 882-145.45 0-145.45 0-168-21.92-9-9.07-16.83-19.25-24.65-29.33q-3.38-4.36-6.79-8.69-0.67-0.86-1.36-1.74-5.07-6.43-10.2-12.82c-6.62-8.26-13.16-16.58-19.68-24.93q-7.34-9.39-14.88-18.63c-3.91-4.78-7.76-9.59-11.5-14.5q-5.35-7.01-10.88-13.88-5.85-7.28-11.62-14.62-0.68-0.86-1.37-1.74-3.38-4.31-6.75-8.63-7.34-9.39-14.88-18.63c-3.91-4.78-7.76-9.59-11.5-14.5q-5.35-7.01-10.88-13.88-5.85-7.28-11.62-14.62-0.68-0.86-1.37-1.74-3.38-4.31-6.75-8.63-7.34-9.39-14.88-18.63c-4.73-5.79-9.32-11.65-13.85-17.6-2.95-3.84-6.02-7.59-9.09-11.34-3.93-4.8-7.8-9.63-11.56-14.56q-5.35-7.01-10.88-13.88-5.85-7.28-11.62-14.62-0.68-0.86-1.37-1.74-3.38-4.31-6.75-8.63-7.34-9.39-14.88-18.63c-3.91-4.78-7.76-9.59-11.5-14.5q-5.35-7.01-10.88-13.88-5.85-7.28-11.62-14.62-0.68-0.86-1.37-1.74-3.38-4.31-6.75-8.63-7.34-9.39-14.88-18.63c-3.91-4.78-7.76-9.59-11.5-14.5q-5.35-7.01-10.88-13.88-5.85-7.28-11.62-14.62-0.68-0.86-1.37-1.74-3.38-4.31-6.75-8.63-7.34-9.39-14.88-18.63-7.1-8.71-13.91-17.66c-2.81-3.66-5.7-7.25-8.59-10.84-5.13-6.38-10.07-12.87-14.94-19.44-0.11 8.06 0.07 16.01 0.7 24.04 1.77 22.88 1.57 45.77 1.53 68.71q-0.01 9.33 0 18.67 0 16.11-0.02 32.23-0.02 16.87-0.02 33.75 0 1.05 0 2.13 0 5.36 0 10.72-0.01 37.82-0.04 75.63-0.03 36.71-0.04 73.41 0 1.13 0 2.29 0 11.39-0.01 22.79-0.01 23.2-0.02 46.41c0 1.06 0 1.06 0 2.15q-0.03 71.04-0.08 142.07c-59.73 0-119.46 0-181 0 0-291.06 0-582.12 0-882z"/>
	<path class="s4" d="m1909 3773c433.08 0 433.08 0 512.18 43.03q2.89 1.53 5.82 2.97c16.08 8.09 31.5 18.05 45 30q1.12 0.96 2.28 1.95c17.26 15.08 31.89 31.38 43.72 51.05q0.61 1.01 1.23 2.05c23.33 39.21 31.98 84.98 32.02 130.14q0 1.31 0 2.66c-0.01 14.91-0.85 29.41-3.25 44.15q-0.22 1.37-0.44 2.78c-4.19 25.96-12.26 51.2-24.62 74.44q-1.34 2.55-2.65 5.13c-8.56 16.51-19.63 31.73-32.22 45.4q-2.75 3.01-5.38 6.13c-8.12 9.27-16.97 17.54-26.69 25.12q-1.5 1.19-3.05 2.43c-12.84 10.13-26.39 18.65-40.79 26.4q-3.03 1.65-6.04 3.33c-9.09 5.03-18.45 9.05-28.12 12.84q0 0.98 0 2c1.52 0.82 1.52 0.82 3.08 1.65 30.15 16.42 51.25 39.34 68.92 68.35q0.97 1.58 1.96 3.22 5.96 9.77 11.88 19.57c8.29 13.69 16.62 27.36 25.06 40.96 4.89 7.88 9.7 15.8 14.5 23.73q7.75 12.79 15.6 25.52 8.4 13.62 16.69 27.31 7.33 12.14 14.81 24.19c5.36 8.63 10.64 17.3 15.9 25.98q7.75 12.79 15.6 25.52 8.4 13.62 16.69 27.31 7.53 12.45 15.19 24.82c0.77 1.25 0.77 1.25 1.56 2.52q3.09 4.98 6.18 9.96 2.35 3.78 4.69 7.58 0.71 1.13 1.44 2.3c3.25 5.28 3.25 5.28 3.25 7.51q-37.33 0.07-74.66 0.1-17.34 0.02-34.67 0.05-15.12 0.03-30.24 0.04-8 0-16 0.02-7.54 0.02-15.08 0.02-2.76 0-5.51 0.01c-26.15 0.1-51.07-3.17-70.68-22.05q-1.06-1.08-2.16-2.19-0.89-0.86-1.82-1.75c-5.76-5.99-9.59-13.42-13.67-20.6q-2.45-4.29-4.92-8.55c-8.59-14.82-17.09-29.69-25.57-44.57q-4.51-7.89-9.02-15.78-2.5-4.38-5-8.75-1-1.75-2-3.5-10-17.5-20-35-0.49-0.86-1-1.75-1-1.75-2-3.5-2.5-4.37-5-8.75-4.51-7.9-9.03-15.8-10.19-17.88-20.47-35.7-7.25-12.54-14.43-25.12-1.5-2.62-3.01-5.25-4.65-8.11-9.22-16.27c-15.67-29.61-15.67-29.61-42.96-47.35-25.48-6.62-51.47-3.58-77.88-4.01 0 107.58 0 215.16 0 326-67.98 0-135.96 0-206 0 0-291.06 0-582.12 0-882zm206 154c0 85.8 0 171.6 0 260 71.08 2.95 71.08 2.95 142-7q1.79-0.5 3.64-1.02c17.37-5.33 33.32-13.45 47.36-24.98q1.28-1.03 2.6-2.09c25.08-21.11 36.57-53.74 39.65-85.49 2.69-32.3-2.24-66.9-23.38-92.67-2.23-2.63-4.54-5.19-6.87-7.75q-0.89-1.01-1.8-2.05c-17.8-19.21-45.85-28.4-70.89-33.14q-1.19-0.23-2.42-0.47c-41.92-7.43-89.94-3.34-129.89-3.34z"/>
	<path class="s5" d="m-675 3773c335.9 0 335.9 0 368.63 3.75q1.1 0.12 2.24 0.25c78.09 8.78 158.98 33.76 221.72 102.15 27.3 34.32 42.51 76.48 47.41 119.85q0.13 1.15 0.27 2.33c6.91 64-5.84 132.97-44.27 185.67-0.73 1.01-0.73 1.01-1.47 2.04-7.29 10.01-15.13 19.28-23.76 28.15q-2.65 2.72-5.27 5.47c-7.1 7.34-14.52 13.87-22.7 19.98q-2.72 2.07-5.39 4.22c-18.07 14.25-38.54 24.64-59.41 34.14q-1.53 0.7-3.11 1.42-3.94 1.79-7.89 3.58 1.27 0.69 2.57 1.4c8.95 4.94 17.25 10.47 25.43 16.6q1.27 0.93 2.57 1.89c21.39 16.29 34.67 37.67 48.37 60.35q2.64 4.38 5.3 8.75 3.2 5.26 6.4 10.53 8.22 13.55 16.55 27.04 7.3 11.86 14.53 23.77 6.51 10.7 13.09 21.36 9.04 14.67 17.96 29.42 6.8 11.23 13.73 22.39c5.36 8.63 10.64 17.3 15.9 25.98q7.75 12.79 15.6 25.52 8.4 13.62 16.69 27.31 7.34 12.14 14.81 24.19 7.33 11.81 14.58 23.66 1.16 1.89 2.32 3.78 1.63 2.64 3.24 5.28 0.93 1.52 1.89 3.09c1.28 2.34 1.9 4.13 2.47 6.69q-37.33 0.07-74.66 0.1-17.34 0.02-34.67 0.05-15.12 0.03-30.24 0.04-8 0-16 0.02-7.54 0.02-15.08 0.02-2.76 0-5.51 0.01c-28.06 0.11-51.97-4.26-72.99-24.29-6.19-6.5-10.44-14.21-14.85-21.95q-1.78-3.11-3.57-6.21-5.17-9.03-10.31-18.07-5.09-8.93-10.18-17.84-0.5-0.87-1.01-1.76-7.18-12.58-14.43-25.12-10.79-18.71-21.48-37.47-4.51-7.89-9.02-15.78-2.5-4.38-5-8.75-1-1.75-2-3.5-10-17.5-20-35-0.49-0.86-1-1.75-1-1.75-2-3.5-2.5-4.37-5-8.75-5.52-9.67-11.04-19.34-4.49-7.85-8.98-15.69-2.5-4.39-5-8.79c-16.37-31.05-16.37-31.05-45.11-48.99-24.31-6.66-54.42-3.33-76.87-3.69 0 107.58 0 215.16 0 326-67.65 0-135.3 0-205 0 0-291.06 0-582.12 0-882zm205 154c0 85.8 0 171.6 0 260 108.96 5.63 108.96 5.63 201.96-40.87 25.64-25.83 34.3-62.53 34.29-97.95-0.35-32.07-10.13-59.76-32.25-83.18q-0.88-0.95-1.78-1.94c-25.68-27.07-67.03-33.13-102.22-36.06-33 0-66 0-100 0z"/>
	<path class="s3" d="m2665 3773c67.65 0 135.3 0 205 0 0.03 15.69 0.05 31.37 0.08 47.54q0.02 15.71 0.05 31.43 0 1 0 2.02 0.06 33.65 0.11 67.29 0.01 1.09 0.01 2.22 0.04 23.89 0.08 47.77 0.02 11.72 0.04 23.43c0 1.17 0 1.17 0.01 2.36q0.06 37.72 0.12 75.45 0.06 38.8 0.13 77.59 0.01 5.49 0.02 10.98 0 1.08 0.01 2.19 0.03 17.33 0.05 34.66 0.03 17.46 0.06 34.93 0.02 9.44 0.03 18.89 0.01 8.67 0.04 17.35 0 3.11 0 6.22c0.01 18.81 0.04 37.81 2.47 56.49q0.2 1.54 0.4 3.12c1.25 9.48 3.02 18.78 5.29 28.07q0.27 1.11 0.54 2.25c9.85 40.52 33.27 78.96 69.02 101.37 16.1 9.75 33.28 16.46 51.63 20.63q0.99 0.23 2.01 0.46c13.71 2.92 27.21 3.7 41.18 3.66q1.3 0 2.65 0c45.43-0.13 87.77-14.33 120.53-46.62 24.7-24.94 38.76-58.66 45.44-92.75 0.21-1.05 0.21-1.05 0.42-2.13 5.87-30.62 4.89-62.07 4.9-93.1q0-8.75 0.03-17.51 0.03-17.87 0.05-35.74 0.01-17.67 0.04-35.34c0-1.1 0-1.1 0.01-2.23q0.01-5.6 0.01-11.21 0.07-39.57 0.12-79.15 0.04-38.42 0.1-76.83c0-1.19 0-1.19 0.01-2.4q0.01-11.92 0.03-23.84 0.04-24.27 0.08-48.55 0-1.11 0-2.25 0.05-34.16 0.1-68.33c0-1.91 0-1.91 0-3.86q0.05-38.26 0.1-76.53c67.65 0 135.3 0 205 0 0.06 62.95 0.06 62.95 0.08 82.68 0 1.04 0 1.04 0 2.11q0.03 35.25 0.05 70.5 0 1.15 0 2.33 0.01 25.04 0.02 50.08 0.01 12.28 0.01 24.56 0.01 1.22 0.01 2.47 0.02 39.51 0.06 79.03 0.04 40.65 0.05 81.3 0 5.76 0 11.52 0 1.13 0.01 2.29 0 18.14 0.03 36.29 0.03 18.3 0.02 36.6 0 9.89 0.02 19.79c0.19 84.29-12.58 168.84-62.36 239.45q-0.57 0.82-1.16 1.67c-5.61 8.08-11.49 15.81-17.84 23.33q-1.23 1.5-2.49 3.05c-6.3 7.64-13.09 14.74-20.07 21.76q-1.29 1.3-2.61 2.64c-5.97 5.94-12.22 11.34-18.83 16.55-1.1 0.87-1.1 0.87-2.22 1.76-15.48 12.18-31.6 22.63-48.78 32.24-1.06 0.59-1.06 0.59-2.13 1.2-84.3 47.11-190.69 56.24-325.87 30.8-37.18-10.88-72.8-26.3-105-48q-0.94-0.63-1.91-1.28c-13.33-9.07-25.77-19.35-37.54-30.36-2.08-1.92-4.18-3.75-6.36-5.55-3.04-2.57-5.57-5.41-8.13-8.44-2-2.3-4.07-4.5-6.17-6.7-48.47-51.26-75.69-121.71-85.14-190.73q-0.23-1.64-0.46-3.32c-0.49-3.87-0.89-7.74-1.29-11.62q-0.12-1.15-0.25-2.34c-2.55-24.49-2.02-49.12-1.98-73.7q0.01-8.94 0-17.88 0-18.25 0.02-36.5 0.02-18.04 0.02-36.08 0-1.12 0-2.27 0-5.72 0-11.45 0.01-40.4 0.04-80.81 0.03-39.23 0.04-78.46 0-1.2 0-2.45 0-12.16 0.01-24.33 0.01-24.79 0.02-49.57 0-1.13 0-2.3 0.01-34.88 0.03-69.76 0-1.95 0-3.95 0.02-39.07 0.05-78.15z"/>
	<path class="s6" d="m2051 68c0.89 0.67 0.89 0.67 1.79 1.35 8.36 6.33 16.13 13.1 23.75 20.29 2.07 1.93 4.2 3.76 6.33 5.61 10.67 9.57 20.32 20.47 29.13 31.75q1.15 1.44 2.34 2.93c47.12 59.79 71.87 133.73 71.91 209.63 0 1.57 0 1.57 0 3.17-0.01 16.6-0.61 32.84-3.25 49.27q-0.26 1.61-0.52 3.27c-9.4 57.05-33 111.76-69.48 156.73-1.08 1.37-1.08 1.37-2.18 2.76-14.31 17.87-30.68 35.26-48.82 49.24q-1.69 1.38-3.36 2.77c-9.44 7.79-19.33 14.67-29.64 21.23q-0.93 0.59-1.89 1.21c-42.45 26.87-90.34 43.51-140.11 49.79q-1.29 0.17-2.62 0.35c-71.47 9.45-147.39-7.19-209.38-43.35q-1.19-0.69-2.42-1.41c-21.42-12.54-40.94-27.32-59.07-44.27-2.06-1.9-4.15-3.72-6.32-5.51-3.16-2.66-5.78-5.67-8.45-8.82-1.63-1.87-3.33-3.58-5.11-5.3-4.62-4.56-8.59-9.62-12.63-14.69q-0.66-0.81-1.33-1.65c-37.43-46.58-62.55-102.19-71.67-161.35-0.22-1.4-0.22-1.4-0.45-2.83-12.4-81.16 6.5-169.04 52.45-237.17q0.68-1.01 1.38-2.06c9.84-14.51 20.75-28.04 32.62-40.94q2.25-2.53 4.5-5.06c6.74-7.48 13.84-14.42 21.5-20.94q1.34-1.18 2.72-2.39c46.1-40.12 104.04-67.44 164.28-77.61q1.7-0.29 3.45-0.59c91.06-15 187.25 8.56 260.55 64.59z"/>
	<path class="s7" d="m1287 3773c69.63 0 139.26 0 211 0 20.89 53.39 20.89 53.39 27.25 69.81q1.16 3.01 2.33 6.01 9.93 25.65 19.82 51.31 13.1 33.95 26.27 67.87 6.51 16.79 13.02 33.57 1.79 4.61 3.57 9.21 0.59 1.51 1.19 3.07 3.52 9.07 7.04 18.13 13.99 36.06 27.91 72.15 13.1 33.95 26.27 67.87 6.51 16.79 13.02 33.57 1.79 4.61 3.57 9.21 0.59 1.51 1.19 3.07 3.52 9.07 7.04 18.13 13.99 36.06 27.91 72.15 13.1 33.95 26.27 67.87 6.51 16.79 13.02 33.57 1.79 4.61 3.57 9.21 0.59 1.51 1.19 3.07 3.52 9.07 7.04 18.13 13.99 36.06 27.91 72.15 12.5 32.39 25.06 64.75 4.35 11.21 8.7 22.43 0.64 1.65 1.3 3.34 2.49 6.43 4.98 12.86 1.14 2.95 2.29 5.89 1.08 2.81 2.17 5.61 2.58 6.67 5.2 13.32 0.49 1.25 1 2.54 0.92 2.35 1.86 4.7c2.04 5.21 2.04 5.21 2.04 7.43q-31.88 0.07-63.76 0.1-14.81 0.02-29.61 0.05-12.92 0.03-25.83 0.04-6.83 0-13.66 0.02-6.44 0.02-12.89 0.02-2.35 0-4.69 0.01c-22.44 0.1-43.74-2.81-61.01-18.62-16.51-17.26-22.19-42.14-29.46-64.22q-2.66-8.04-5.34-16.09-0.99-3.01-1.99-6.02-5.52-16.61-11.2-33.17-0.41-1.19-0.83-2.43-4.25-12.4-8.53-24.79-1.85-5.36-3.69-10.71-1.3-3.75-2.6-7.51-0.78-2.26-1.56-4.52-0.36-1.02-0.73-2.07c-0.97-2.84-1.62-5.07-1.62-8.09-110.55 0-221.1 0-335 0-0.66 2.97-1.32 5.94-2 9q-0.68 2.41-1.47 4.78-0.41 1.24-0.84 2.51-0.44 1.3-0.89 2.65c-0.47 1.41-0.47 1.41-0.95 2.85q-1.55 4.61-3.1 9.21-1.09 3.26-2.18 6.51-7.45 22.2-15.05 44.34-4.94 14.39-9.77 28.82-1.92 5.73-3.84 11.46-1.58 4.69-3.14 9.38-1.75 5.26-3.52 10.51c-0.51 1.55-0.51 1.55-1.03 3.13-3.37 9.95-7.46 19.75-14.53 27.66q-0.71 0.81-1.44 1.65c-3.99 4.47-8.25 8.22-13.25 11.54q-1.16 0.79-2.36 1.61c-15.35 9.88-32.72 10.7-50.47 10.62q-2.45 0-4.91 0-6.6 0-13.2-0.03-6.92-0.01-13.84-0.01-13.08-0.01-26.16-0.05-14.9-0.03-29.81-0.04-30.62-0.03-61.25-0.1c3.24-9.27 6.5-18.51 10.07-27.66 0.55-1.39 0.55-1.39 1.1-2.81q1.76-4.52 3.52-9.03 1.26-3.23 2.51-6.47 2.61-6.69 5.22-13.39 5.46-14.05 10.9-28.11 2.97-7.65 5.94-15.31 0.59-1.51 1.19-3.07 3.52-9.07 7.04-18.13 13.29-34.25 26.51-68.52 13.8-35.77 27.67-71.5 3.54-9.11 7.07-18.22 0.58-1.51 1.19-3.07 1.78-4.6 3.57-9.21c8.73-22.52 8.73-22.52 12.99-33.48q13.29-34.25 26.51-68.52 13.8-35.77 27.67-71.5 3.54-9.11 7.07-18.22 0.58-1.51 1.19-3.07 1.78-4.6 3.57-9.21c8.73-22.52 8.73-22.52 12.99-33.48q13.29-34.25 26.51-68.52 13.8-35.77 27.67-71.5 3.54-9.11 7.07-18.22 0.58-1.51 1.19-3.07 1.78-4.6 3.57-9.21c8.73-22.52 8.73-22.52 12.99-33.48q14.53-37.45 28.98-74.94c9.15-23.71 18.34-47.39 27.53-71.08zm105 185q-0.46 1.65-0.94 3.35c-10.46 37.08-21.71 73.65-34.96 109.84-6.91 18.93-13.31 38.04-19.72 57.14q-2.41 7.15-4.81 14.29-2.95 8.75-5.89 17.5-8.28 24.6-16.6 49.19-1.81 5.37-3.63 10.74-7.18 21.26-14.39 42.52-2.85 8.43-5.71 16.86-2.32 6.87-4.65 13.73-1.43 4.2-2.85 8.4-0.66 1.95-1.32 3.9-0.9 2.66-1.8 5.31-0.5 1.48-1.02 3.01c-0.76 1.99-0.76 1.99-0.71 3.22 78.87 0 157.74 0 239 0-2.3-8.57-2.3-8.57-4.95-16.98q-0.53-1.57-1.08-3.18-0.57-1.67-1.16-3.39-0.95-2.8-1.91-5.6-1.02-3-2.04-6-3.71-10.87-7.4-21.74c-0.38-1.15-0.38-1.15-0.78-2.32-6.19-18.23-12.26-36.49-18.34-54.76-10.67-32.1-10.67-32.1-21.57-64.13-5.61-16.34-11.06-32.73-16.5-49.12q-7.71-23.21-15.65-46.34c-9.72-28.31-18.98-56.78-27.62-85.44q-0.49 0-1 0z"/>
	<path class="s5" d="m672 3857c-8.98 18.21-18.3 36.26-28.12 54.04q-4.75 8.66-9.28 17.44-1.78 3.41-3.55 6.82-1.15 2.22-2.29 4.45c-8.54 16.73-18.71 33.34-37 40.38-18.82 5.96-35.34-0.63-51.99-9.21-8.56-4.45-17.04-9.05-25.47-13.75-47.8-26.55-104.5-40.65-158.48-25.56-14.63 4.29-27.28 10.18-38.82 20.39q-0.91 0.77-1.86 1.57c-13.88 12.65-22.22 33.44-23.28 51.9-0.72 20.25 1.67 36.59 15.2 52.59 32.71 34.54 85.06 46.99 128.84 60.63 67.57 21.07 138.01 44.13 189.1 95.31q0.88 0.81 1.78 1.64c24.14 22.6 40.72 55.81 49.22 87.36q0.29 1.03 0.58 2.09c19.59 71.72 4.65 154.53-31.22 218.57-6.83 11.73-14.8 22.82-23.36 33.34q-0.64 0.79-1.29 1.6c-12.81 15.8-27.24 30.44-43.71 42.4q-1.62 1.21-3.23 2.43c-47.66 35.36-105.03 54.22-163.77 59.57q-1.39 0.13-2.82 0.27c-82.23 7.4-168.78-9.34-248.11-49.18q-3.68-1.92-7.39-3.79c-23.71-12.04-46.42-25.99-66.68-43.3q-1.78-1.51-3.57-3.01-1.87-1.59-3.74-3.18-0.86-0.72-1.75-1.47-2.49-2.15-4.94-4.34-0.88-0.77-1.79-1.56c-1.69-1.55-1.69-1.55-4.21-4.44 0.32-2.9 1.47-5.06 2.98-7.52q0.62-1.02 1.26-2.06c0.68-1.11 0.68-1.11 1.39-2.23q0.71-1.17 1.45-2.37c4.66-7.51 9.52-14.9 14.37-22.29q6.38-9.76 12.41-19.74c5.37-8.87 10.97-17.58 16.56-26.3q2.1-3.31 4.15-6.65c9.53-15.37 20.72-26.69 38.65-31.43 10.85-1.61 22.49-1.28 32.78 2.59q1.13 0.36 2.29 0.74c8.84 3.11 16.74 8.41 24.71 13.26q1.35 0.82 2.74 1.67 5.87 3.57 11.73 7.14c8.46 5.16 16.94 10.26 25.53 15.19q1.67 0.97 3.39 1.97c18.66 10.4 38.89 18.81 59.61 24.03 1.85 0.47 1.85 0.47 3.74 0.95 15 3.48 30.04 4.4 45.39 4.37q4.01 0 8.01 0.04c15.55 0.06 31.22-1.31 46.11-6.05 1.22-0.38 1.22-0.38 2.47-0.76 12.1-3.92 23.24-9.74 33.28-17.55q0.91-0.66 1.84-1.35c16.48-12.85 23.48-34.52 26.77-54.34 2.61-23.77 1.39-49.24-14.15-68.63-30.74-35.79-81.87-47.97-125.27-60.49-164.2-47.41-164.2-47.41-208.19-113.19q-0.71-1.05-1.43-2.13c-7.03-10.57-13.25-21.35-18.57-32.87q-0.45-0.96-0.92-1.95c-11.27-24.18-17.21-49.58-20.08-76.05q-0.14-1.23-0.29-2.5c-1-9.85-0.93-19.75-0.95-29.65q-0.02-4.68-0.07-9.35c-0.1-18.3 1.53-36.35 6.06-54.13 0.39-1.54 0.39-1.54 0.78-3.12 9.96-39.01 28.02-75.27 55.39-104.99q2.82-3.08 5.52-6.26c48.51-55.59 126.37-85.18 198.36-90.66q2.6-0.18 5.2-0.34 1.38-0.09 2.8-0.19c89.83-5.64 182.82 13.48 299.2 93.19z"/>
	<path class="s5" d="m3025 4842q15.41-0.07 30.83-0.1 7.15-0.02 14.31-0.05 6.92-0.03 13.83-0.04 2.63-0.01 5.26-0.02c13.67-0.08 25.61-0.06 35.96 10.02 2.72 3.49 3.96 7.22 5.21 11.41q0.32 1.05 0.65 2.13c2.33 7.74 4.38 15.56 6.41 23.39q0.63 2.42 1.26 4.83 1.35 5.17 2.69 10.34 3.27 12.57 6.55 25.14 0.77 2.94 1.53 5.87 5.93 22.74 11.94 45.45 0.81 3.04 1.61 6.07 3.1 11.72 6.2 23.44c5.22 19.68 10.38 39.36 15.34 59.1q0.31 1.26 0.64 2.54c2.22 8.79 4.36 17.53 5.78 26.48q0.27-1.08 0.56-2.18c5.31-20.65 11.38-41 17.8-61.32q1.98-6.28 3.94-12.57 0.81-2.58 1.62-5.16 0.4-1.28 0.81-2.6 1.23-3.91 2.46-7.81 7.08-22.61 14.08-45.24 2.37-7.68 4.75-15.35 1.35-4.33 2.69-8.65 0.32-1.05 0.66-2.14 4.38-14.14 8.68-28.3 2.28-7.51 4.58-15.01 1.55-5.03 3.06-10.07 1.65-5.49 3.34-10.97 0.47-1.59 0.95-3.24c3.09-9.9 8.07-17.02 17.02-22.39 8.25-3.83 17.12-3.46 26.01-3.39q3.73 0.02 7.45-0.02c11.61-0.02 22.16 0.48 31.09 8.87 7.97 8.44 10.21 20.9 13.47 31.75q0.73 2.42 1.46 4.83 1.57 5.18 3.13 10.36 4.21 13.91 8.44 27.81 0.43 1.42 0.88 2.88c5.83 19.18 11.77 38.32 17.76 57.45q3.33 10.66 6.66 21.33 0.36 1.13 0.72 2.31 7.4 23.71 14.66 47.47 0.86 2.82 1.73 5.64 1.58 5.17 3.15 10.34 0.45 1.47 0.92 2.98c2.04 6.75 3.82 13.54 5.47 20.39q0.32-1.43 0.65-2.9c5.73-25.47 12.01-50.75 18.66-75.99q1.94-7.37 3.87-14.75 3.65-13.93 7.32-27.86 2.94-11.17 5.87-22.34 4.51-17.19 9.03-34.37 1.17-4.43 2.34-8.87 1.83-6.99 3.68-13.98 0.67-2.55 1.34-5.09 2.08-7.94 4.24-15.85 0.31-1.16 0.64-2.35 0.95-3.49 1.94-6.97 0.28-1.04 0.57-2.11c2.13-7.41 5.94-12.11 12.41-16.18 6.66-3.53 12.39-4.54 19.89-4.5q1.1 0 2.22 0 3.61 0 7.22 0.01 2.52 0.01 5.03 0.01 6.59 0 13.19 0.02 6.74 0.02 13.47 0.02 13.21 0.02 26.42 0.05c-0.58 4.66-1.46 8.96-2.86 13.44-0.58 1.87-0.58 1.87-1.17 3.77q-0.64 2.04-1.28 4.07-0.67 2.15-1.34 4.29-1.42 4.58-2.86 9.15-2.26 7.24-4.51 14.48-2.67 8.58-5.35 17.17-5.74 18.4-11.42 36.82-2.06 6.67-4.13 13.35-1.52 4.95-3.05 9.9-3.06 9.9-6.12 19.79-12.39 40.07-24.76 80.15-9.32 30.19-18.66 60.37-6.22 20.14-12.44 40.28-1.1 3.57-2.2 7.14-0.73 2.36-1.46 4.72-0.36 1.16-0.73 2.36-2.14 6.94-4.28 13.88-1.33 4.3-2.66 8.61-0.62 2.01-1.24 4.02-0.86 2.77-1.71 5.53-0.48 1.55-0.97 3.14-0.87 2.79-1.8 5.57c-27.06 0-54.12 0-82 0-11.31-36.67-11.31-36.67-14.58-47.32q-0.34-1.11-0.69-2.25-6.3-20.51-12.48-41.06-0.46-1.52-0.93-3.09c-0.47-1.57-0.47-1.57-0.95-3.16q-8.82-29.24-17.7-58.46-1.18-3.88-2.37-7.77-7.39-24.34-14.81-48.68-0.49-1.61-1-3.28-2.19-7.18-4.38-14.36c-2.8-9.17-5.52-18.34-8.11-27.57q-3.04 9.05-5.91 18.15-0.42 1.34-0.86 2.71-1.43 4.54-2.86 9.08-0.5 1.61-1.03 3.28c-7.11 22.66-14.03 45.39-20.94 68.12-10 32.91-20.15 65.76-30.37 98.6q-0.4 1.31-0.82 2.65-1.97 6.34-3.94 12.67-3.42 10.96-6.79 21.93-0.56 1.83-1.14 3.72-1.02 3.35-2.04 6.71-0.44 1.43-0.89 2.9-0.37 1.23-0.76 2.5c-0.65 1.98-0.65 1.98-1.65 3.98-26.73 0-53.46 0-81 0-4.5-11.25-4.5-11.25-5.94-15.98-0.5-1.61-0.5-1.61-1-3.25-0.52-1.72-0.52-1.72-1.05-3.47q-0.87-2.84-1.74-5.69-0.93-3.04-1.86-6.08-1.97-6.46-3.95-12.93-0.34-1.1-0.68-2.23-0.7-2.26-1.39-4.51-1.06-3.46-2.12-6.92-7.21-23.53-14.52-47.04-3.12-10.04-6.23-20.08-0.34-1.1-0.69-2.23-7.84-25.29-15.64-50.59-0.67-2.15-1.33-4.3-2.27-7.37-4.55-14.74-6.4-20.73-12.81-41.46-6.55-21.17-13.08-42.34-1.03-3.32-2.05-6.64-3.07-9.94-6.14-19.89-1.65-5.32-3.29-10.65-0.32-1.02-0.64-2.08-4.24-13.73-8.52-27.45-0.94-2.99-1.87-5.99-1.67-5.36-3.36-10.72-0.72-2.33-1.44-4.65-0.33-1.03-0.66-2.08c-0.87-2.8-1.45-5.06-1.45-8.01z"/>
	<path class="s5" d="m2208 4842c87.07 0 87.07 0 93.33 5.98 3.59 4.35 6.03 9.36 8.59 14.36q0.97 1.86 1.94 3.72 3.11 5.95 6.14 11.94 0.5 0.98 1.02 2 7.2 14.21 14.26 28.48 4.63 9.33 9.27 18.65 0.49 0.99 1 2.01c4.17 8.38 8.42 16.7 12.82 24.96 6.15 11.59 11.9 23.4 17.74 35.15 5.66 11.37 11.35 22.72 17.3 33.94 4.5 8.5 8.85 17.08 13.15 25.69q0.61 1.22 1.25 2.48c6.19 12.36 12.06 24.79 17.19 37.64q0.4-0.93 0.82-1.9c5.23-12.08 10.56-24.1 16.24-35.97q0.67-1.4 1.35-2.84c2.96-6.13 6.09-12.16 9.27-18.17 5.63-10.62 10.98-21.36 16.32-32.12 5.23-10.53 10.46-21.05 15.97-31.44 5.71-10.75 11.12-21.65 16.53-32.56 5.84-11.76 11.72-23.5 17.88-35.1q4.28-8.11 8.32-16.35 0.57-1.14 1.15-2.32 2.29-4.64 4.56-9.29c10.87-22.27 10.87-22.27 18.59-26.94 28.64-6.36 58.66-2 88-2 0 126.06 0 252.12 0 382-26.07 0-52.14 0-79 0 0-81.84 0-163.68 0-248-7.59 14.85-15.18 29.7-23 45-7.31 14.13-7.31 14.13-10.55 20.36q-6.22 11.99-12.39 24.02-9.15 17.82-18.37 35.61-6.29 12.16-12.54 24.33-2.32 4.52-4.65 9.03-1.12 2.19-2.25 4.38-0.54 1.06-1.11 2.15-3.38 6.57-6.7 13.17-1.56 3.07-3.13 6.14-0.66 1.33-1.34 2.71c-4.1 8-8.78 14.71-17.16 18.54q-1.5 0.7-3.04 1.43c-6.36 2.59-12.47 2.39-19.27 2.44q-1.67 0.05-3.4 0.09c-10.86 0.08-20.97-1.96-28.96-9.77-4.62-5.67-7.85-12.14-11.14-18.63q-0.59-1.17-1.21-2.38-3.17-6.28-6.28-12.6-3.44-6.9-7.07-13.71c-4.63-8.73-9.17-17.52-13.69-26.31q-2.22-4.32-4.45-8.64c-0.54-1.07-0.54-1.07-1.1-2.15q-5.15-9.99-10.32-19.96-7.17-13.81-14.32-27.62-0.94-1.82-1.88-3.64-4.29-8.29-8.57-16.59-1.94-3.74-3.87-7.48-1.31-2.53-2.61-5.06c-5.85-11.31-11.74-22.58-17.63-33.86 0 81.51 0 163.02 0 247-26.07 0-52.14 0-79 0 0-126.06 0-252.12 0-382zm77 131c1 2 1 2 1 2z"/>
	<path class="s5" d="m753 4872q0.82 0.57 1.67 1.16c6.4 4.53 12.33 9.46 18.08 14.8q2.35 2.13 4.84 4.09c3.63 2.94 6.44 6.37 9.41 9.95q0.67 0.8 1.36 1.62c6.98 8.38 13.29 16.85 18.64 26.38 0.58 1 0.58 1 1.16 2.03 18.94 33.25 26.75 69.87 25.84 107.97q-0.04 1.88-0.09 3.81c-1.06 30.7-9.63 60.13-23.91 87.19q-0.47 0.89-0.95 1.82c-22.4 42.48-63.34 73.08-108.79 87.16-8.95 2.64-18.06 4.53-27.26 6.02q-1.57 0.27-3.18 0.54c-11.19 1.71-22.27 1.86-33.57 1.84q-1.48-0.01-3.01-0.01c-16.05-0.04-31.51-0.87-47.24-4.37q-1.45-0.32-2.93-0.65c-13.28-3.06-25.73-7.61-38.07-13.35q-0.97-0.45-1.97-0.91c-11.91-5.58-22.86-12.33-33.4-20.15q-0.98-0.72-1.99-1.46c-4.01-3.04-7.6-6.29-11.08-9.92-1.73-1.78-1.73-1.78-4.56-4-33.05-28.23-51.39-77.16-55-119.56-0.38-6.79-0.39-13.58-0.37-20.37q0-1.38 0-2.8c0.03-14.96 1-29.2 4.37-43.83q0.28-1.27 0.57-2.57c3.99-17.81 10.84-34.37 19.43-50.43 0.81-1.54 0.81-1.54 1.64-3.1 7.83-14.11 18.2-26.34 29.36-37.9q0.89-0.97 1.82-1.97c9.5-10.08 21.43-17.85 33.18-25.03q1.12-0.7 2.26-1.42c6.01-3.71 12.13-6.79 18.62-9.58q1.48-0.64 3.01-1.3c63.4-26.78 145.16-21.41 202.11 18.3zm-195.75 70.75c-25.42 29.84-31.7 69.66-28.79 107.72 2.82 30.96 13.8 60.52 37.54 81.53 24.18 19.77 55.32 24.39 85.63 21.77 19.38-2.28 37.01-9.82 52.37-21.77q1.54-1.14 3.13-2.31c22.77-21.29 33.89-53.5 34.99-84.14 0.72-34.25-2.34-70.05-25.12-97.55q-1.04-1.27-2.12-2.57c-17.45-20.28-41.45-31.19-67.88-33.43-33.26-1.99-66.2 5.9-89.75 30.75z"/>
	<path class="s5" d="m61 4842c29.7 0 59.4 0 90 0 0 52.8 0 105.6 0 160 50.82 0 101.64 0 154 0 0-52.8 0-105.6 0-160 29.7 0 59.4 0 90 0 0 126.06 0 252.12 0 382-29.7 0-59.4 0-90 0 0-53.13 0-106.26 0-161-50.82 0-101.64 0-154 0 0 53.13 0 106.26 0 161-29.7 0-59.4 0-90 0 0-126.06 0-252.12 0-382z"/>
	<path class="s5" d="m875 4842c29.7 0 59.4 0 90 0 0 51.15 0 102.3 0 155 21.91-0.59 21.91-0.59 39.25-11.06 3.48-4.34 6.55-8.95 9.58-13.61q3.52-5.37 7.17-10.64 0.68-0.99 1.37-2 7.26-10.5 14.57-20.97 8.86-12.75 17.59-25.57 12.17-17.81 24.53-35.49 3.71-5.31 7.35-10.66c7.58-11.09 14.58-20.71 28.45-23.6 10.19-1.56 20.16-1.66 30.44-1.6q2.73 0.01 5.46 0.01 7.11 0.02 14.21 0.05 7.28 0.03 14.57 0.04 14.23 0.04 28.46 0.1c-1.58 4.19-3.5 7.17-6.31 10.69-4.11 5.22-8.07 10.53-11.94 15.94-6.26 8.71-12.61 17.35-18.98 25.98q-4.39 5.94-8.77 11.89-5.26 7.15-10.54 14.29-8.61 11.64-17.09 23.4-6.81 9.47-13.85 18.77c-3.73 4.95-7.35 9.95-10.96 14.98-23.42 32.54-23.42 32.54-37.56 41.06 2.83 2.23 5.79 4.1 8.87 5.95 12.79 7.81 20.19 18.66 28.13 31.05q1.27 1.97 2.55 3.93 2.71 4.18 5.41 8.36 5.19 8.03 10.41 16.02 7.08 10.84 14.13 21.69 6.99 10.76 14 21.5 11.06 16.96 22.08 33.94 8.5 13.08 17.01 26.14 1.9 2.9 3.79 5.81 4.71 7.23 9.46 14.44 0.9 1.38 1.84 2.8 1.72 2.63 3.46 5.25 0.76 1.16 1.54 2.36 0.67 1.01 1.36 2.06c0.96 1.7 0.96 1.7 0.96 3.7q-17.54 0.11-35.08 0.16-8.14 0.02-16.29 0.07-7.86 0.04-15.73 0.05-3 0.01-5.99 0.04-4.21 0.03-8.42 0.02c-1.22 0.02-1.22 0.02-2.47 0.03-9.64-0.05-17.98-2.66-25.02-9.37-5.37-5.73-9.51-12.24-13.59-18.92-4.28-6.98-8.84-13.78-13.41-20.58-9.63-14.36-9.63-14.36-13.94-21.37-6.62-10.79-13.66-21.3-20.61-31.87q-4.32-6.59-8.6-13.2-3.07-4.73-6.15-9.45-1.85-2.84-3.69-5.69-3.18-4.91-6.39-9.79c-0.98-1.53-0.98-1.53-1.98-3.09-5.61-8.51-10.71-14.18-20.64-17.04-11.28-1.25-22.66-1.55-34-2 0 53.46 0 106.92 0 162-29.7 0-59.4 0-90 0 0-126.06 0-252.12 0-382z"/>
	<path class="s5" d="m1823 4842c29.37 0 58.74 0 89 0 0.02 6.87 0.04 13.74 0.06 20.81q0.1 33.06 0.22 66.12 0.02 5.15 0.04 10.29 0 1.02 0 2.07 0.06 16.53 0.11 33.06 0.04 16.99 0.11 33.98 0.04 9.54 0.06 19.07 0.02 8.99 0.07 17.98 0.01 3.28 0.01 6.56c0.04 29.35 2.04 58.68 22.6 81.6 15.47 14.98 34.64 19.12 55.54 18.93 19.09-0.55 35.7-6.62 49.18-20.47q0.93-0.88 1.89-1.79c15.06-15.37 19.25-39.68 19.27-60.33q0.01-1.46 0.01-2.97 0.02-4.89 0.04-9.78 0.01-3.52 0.03-7.04 0.03-9.53 0.06-19.06 0.03-8.96 0.07-17.92 0.07-17.74 0.13-35.47 0.06-17.23 0.13-34.45c0-1.06 0-1.06 0.01-2.15q0.02-5.33 0.04-10.66 0.17-44.19 0.32-88.38c29.7 0 59.4 0 90 0q0.03 43.08 0.05 86.17 0 5.1 0 10.2c0.01 1.01 0.01 1.01 0.01 2.05q0 16.38 0.02 32.77 0.01 16.84 0.01 33.68 0.01 9.45 0.02 18.9 0.01 8.91 0 17.82 0 3.25 0.01 6.5c0.06 34.31 0.06 34.31-2.43 48.66q-0.2 1.16-0.4 2.36c-7.04 40.35-28.13 75.53-61.54 99.45-29.09 19.74-62.92 27.84-97.8 27.76q-4.02 0-8.04 0.04c-43.52 0.16-85.25-15.22-116.91-45.36-33.02-33.47-42.38-78.83-42.23-124.17q0-3.56 0-7.13 0-9.59 0.03-19.19 0.01-9.04 0.01-18.08 0.01-17.87 0.04-35.75 0.03-17.35 0.04-34.7 0-1.07 0-2.17 0.01-5.38 0.01-10.76 0.03-44.53 0.1-89.05z"/>
	<path class="s5" d="m2816 4842c30.36 0 60.72 0 92 0 9.71 24.75 19.38 49.51 28.94 74.31q0.69 1.79 1.4 3.64 0.69 1.8 1.41 3.65 1.4 3.63 2.8 7.26 0.68 1.78 1.39 3.61 6.85 17.77 13.75 35.53 0.57 1.49 1.17 3.02 2.91 7.49 5.81 14.98 6.51 16.79 13.02 33.57 1.79 4.61 3.57 9.21c0.59 1.52 0.59 1.52 1.19 3.07q3.52 9.07 7.04 18.13 13.29 34.25 26.51 68.52 10.63 27.57 21.31 55.13 0.57 1.45 1.15 2.96 1.1 2.84 2.21 5.68 1.06 2.74 2.11 5.47 2.85 7.34 5.76 14.66 0.62 1.57 1.27 3.19 1.21 3.06 2.43 6.11 0.54 1.36 1.1 2.76 0.48 1.2 0.97 2.44c0.69 2.1 0.69 2.1 0.69 5.1q-14.83 0.11-29.65 0.16-6.89 0.02-13.77 0.07-6.66 0.04-13.31 0.05-2.53 0.01-5.06 0.04c-21.15 0.19-21.15 0.19-29.02-7.01-1.06-0.93-1.06-0.93-2.15-1.88-5.85-6.96-8.16-16.19-10.99-24.67q-0.69-2.06-1.39-4.11-1.81-5.38-3.61-10.77-1.84-5.48-3.69-10.97-4.2-12.45-8.36-24.91c-47.52 0-95.04 0-144 0-5.28 15.84-10.56 31.68-16 48-10.34 28.07-10.34 28.07-22 34-4.65 1.85-8.8 2.28-13.75 2.23q-1.12 0-2.28 0-3.7-0.01-7.4-0.03-2.58-0.01-5.15-0.01-6.76-0.02-13.53-0.05-6.9-0.03-13.81-0.04-13.54-0.04-27.08-0.1c0.84-4.53 2.28-8.67 3.93-12.95q0.45-1.18 0.91-2.4 1.51-3.95 3.03-7.9 1.08-2.82 2.16-5.63c7.39-19.28 14.85-38.52 22.33-57.75q5.98-15.41 11.96-30.81 2.96-7.66 5.93-15.31 1.19-3.06 2.37-6.13 2.38-6.12 4.75-12.25 0.59-1.5 1.19-3.06 1.19-3.06 2.38-6.12 2.97-7.67 5.94-15.33 5.3-13.67 10.61-27.34 13.29-34.25 26.51-68.52 9.92-25.74 19.89-51.46 1.13-2.94 2.27-5.87c6.87-17.75 13.86-35.46 20.84-53.17zm45 83c-0.33 1.13-0.33 1.13-0.67 2.29-5.23 17.88-10.86 35.55-17.01 53.14q-3.09 8.83-6.15 17.67-0.69 2.01-1.39 4.02c-5.66 16.33-11.11 32.73-16.54 49.14q-0.5 1.5-1.01 3.05-0.92 2.78-1.83 5.57c-1.29 3.88-2.62 7.73-4.1 11.54-1.47 3.42-1.47 3.42-1.3 6.58 33.66 0 67.32 0 102 0-1.28-5.78-2.57-11.11-4.52-16.63q-0.37-1.09-0.76-2.2-0.82-2.39-1.65-4.77-2.35-6.76-4.67-13.52-0.51-1.48-1.03-3.01c-4.8-13.99-9.45-28.03-14.12-42.06q-0.66-1.98-1.32-3.96-2.56-7.69-5.11-15.37-3.28-9.87-6.58-19.73-1.02-3.05-2.04-6.09-0.95-2.84-1.9-5.68c-2.22-6.63-4.35-13.27-6.3-19.98q-0.99 0-2 0z"/>
	<path class="s5" d="m3614 4842c81.51 0 163.02 0 247 0 0 22.77 0 45.54 0 69-51.81 0-103.62 0-157 0 0 29.04 0 58.08 0 88 39.6 0 79.2 0 120 0 0 22.11 0 44.22 0 67-39.6 0-79.2 0-120 0 0 29.37 0 58.74 0 89 51.81 0 103.62 0 157 0 0 22.77 0 45.54 0 69-81.51 0-163.02 0-247 0 0-126.06 0-252.12 0-382z"/>
	<path class="s5" d="m1532 4842c81.51 0 163.02 0 247 0 0 22.77 0 45.54 0 69-51.81 0-103.62 0-157 0 0 29.04 0 58.08 0 88 39.6 0 79.2 0 120 0 0 22.11 0 44.22 0 67-39.6 0-79.2 0-120 0 0 29.37 0 58.74 0 89 51.81 0 103.62 0 157 0 0 22.77 0 45.54 0 69-81.51 0-163.02 0-247 0 0-126.06 0-252.12 0-382z"/>
	<path class="s5" d="m1481.31 4875.56q1.33 1.2 2.69 2.44c-0.61 4.52-2.44 8.14-4.57 12.1-0.54 1.02-0.54 1.02-1.09 2.05q-1.14 2.15-2.29 4.29-1.73 3.23-3.44 6.46c-14.09 26.49-14.09 26.49-24.61 30.1-13.07 1.96-23.66-5.32-34.71-11.26-14.36-7.6-28.29-12.1-44.6-12.05-1.58-0.03-1.58-0.03-3.19-0.05-12.3-0.01-24.88 2.6-34.37 10.86q-1.05 1.23-2.13 2.5-1.02 1.08-2.06 2.19c-5.77 8.37-7.88 17.84-6.38 27.87 2.36 9.67 8.07 15.28 16.31 20.56 4.39 2.62 8.96 4.69 13.66 6.69q1.36 0.58 2.76 1.18c10.35 4.33 21 7.68 31.71 11.01 25.18 7.83 51.33 16.62 72 33.5q0.94 0.69 1.91 1.41c16.91 13.04 26.97 35.24 29.91 55.9 4.16 34.76-3.58 70.24-25.32 98.06-22.74 28.31-55.9 42.72-91.5 46.63-6.41 0.48-12.82 0.49-19.25 0.44q-1.26-0.01-2.56-0.01c-13.73-0.07-26.84-1.03-40.19-4.43q-1.34-0.34-2.72-0.68c-31.98-8.2-61.75-21.89-86.28-44.32 1.52-5.82 4.56-10.25 7.88-15.19q1.76-2.66 3.53-5.33 0.89-1.35 1.81-2.74 2.59-4 5.06-8.06 0.78-1.27 1.58-2.58 1.47-2.4 2.92-4.83c3.89-6.32 8.78-12.27 16.22-14.27 14.06-2.81 24.96 4.61 36.5 11.81 12.27 7.5 25.28 14.34 39.5 17.19q1.25 0.27 2.54 0.55c5.19 0.67 10.35 0.68 15.59 0.7 1.59 0.03 1.59 0.03 3.22 0.06 10.02 0.05 19.25-1.59 28.15-6.37q1.43-0.76 2.91-1.54 1.27-0.69 2.59-1.4 1.09-0.46 2.22-0.93c2.29-1.37 2.75-2.64 3.78-5.07q1.88-3.2 3.78-6.39c4.58-9.81 5.36-23.92 1.72-34.17-7.72-15.53-24-21.96-39.5-27.44-8.49-2.78-17.09-5.24-25.66-7.74-24.16-7.09-48.64-15.08-68.34-31.26q-1.07-0.82-2.16-1.67c-19.22-15.5-28.13-40.54-30.84-64.33-2.27-35.51 5.95-63.77 29.19-91.06 53.18-57.42 159.69-49.36 216.12-1.38z"/>
	<path class="s5" d="m-211 4842c29.7 0 59.4 0 90 0 0 102.63 0 205.26 0 311 46.53 0 93.06 0 141 0 0 23.43 0 46.86 0 71-76.23 0-152.46 0-231 0 0-126.06 0-252.12 0-382z"/>
	<path class="s8" d="m1165 871c3.7 1.23 4.5 2.62 6.88 5.69 3.73 4.69 7.64 9.13 11.75 13.5q1.68 1.8 3.37 3.6c0.79 0.84 0.79 0.84 1.59 1.7 3.83 4.11 7.47 8.4 11.11 12.68q1.52 1.79 3.05 3.58 0.77 0.9 1.56 1.83 5.07 5.91 10.38 11.61c3.37 3.62 6.59 7.32 9.69 11.19 4.05 5.03 8.39 9.72 12.82 14.43 4.02 4.29 7.74 8.74 11.41 13.33 3.44 4.12 7.1 8.02 10.79 11.91 3.34 3.55 6.52 7.18 9.6 10.95q-0.49 0.99-1 2-0.62-0.63-1.25-1.29c-3.15-3.2-6.35-6.28-9.75-9.21-2.61-2.25-5.09-4.55-7.5-7-2.39-2.43-4.85-4.71-7.44-6.94-6.1-5.28-11.63-10.99-16.89-17.11-2.35-2.65-4.76-5.22-7.2-7.8-6.29-6.67-12.25-13.48-17.97-20.65q-1.54-1.87-3.09-3.74c-6.52-7.91-12.72-15.93-18.57-24.34q-2.3-3.28-4.63-6.54-1.67-2.34-3.33-4.69-0.8-1.12-1.62-2.27c-0.74-1.04-0.74-1.04-1.49-2.1q-0.65-0.92-1.33-1.87c-0.94-1.45-0.94-1.45-0.94-2.45z"/>
	<path class="s9" d="m2012 2194q0.99 0.49 2 1c-2.64 2.64-5.28 5.28-8 8 0-3 0-3 1.31-4.61q0.83-0.77 1.69-1.58 0.83-0.79 1.69-1.6c0.65-0.6 0.65-0.6 1.31-1.21zm-16 16q0.99 0.49 2 1c-18.48 18.48-36.96 36.96-56 56 0-3 0-3 2.18-5.51q1.51-1.5 3.04-2.97 0.81-0.79 1.63-1.61 2.6-2.56 5.21-5.1 3.4-3.33 6.79-6.67 0.81-0.8 1.66-1.63c3.48-3.45 6.78-7 9.95-10.74 2.68-3.09 5.58-5.95 8.48-8.83 0.91-0.91 0.91-0.91 1.83-1.83 4.26-4.22 8.61-8.29 13.23-12.11z"/>
</svg>